M48
; DRILL file {KiCad 7.0.10} date Mon 26 Feb 2024 14:54:18 GMT
; FORMAT={-:-/ absolute / metric / decimal}
; #@! TF.CreationDate,2024-02-26T14:54:18+00:00
; #@! TF.GenerationSoftware,Kicad,Pcbnew,7.0.10
; #@! TF.FileFunction,Plated,1,2,PTH
FMAT,2
METRIC
; #@! TA.AperFunction,Plated,PTH,ViaDrill
T1C0.400
; #@! TA.AperFunction,Plated,PTH,ComponentDrill
T2C0.600
; #@! TA.AperFunction,Plated,PTH,ComponentDrill
T3C1.000
%
G90
G05
T1
X84.0Y-65.3
X90.0Y-65.3
X92.0Y-73.3
X92.5Y-57.3
X98.0Y-56.3
X98.0Y-73.3
X100.5Y-64.8
X105.5Y-64.3
X108.825Y-58.925
X109.5Y-68.15
X110.525Y-79.5
X112.0Y-63.7
X114.15Y-49.9
X115.45Y-76.175
X116.8Y-60.2
X117.775Y-79.545
X118.29Y-60.065
X118.375Y-70.5
X118.4Y-68.4
X119.325Y-79.535
X119.525Y-69.4
X119.535Y-77.395
X120.475Y-68.375
X120.5Y-70.5
X120.575Y-77.675
X122.115Y-62.075
X123.305Y-62.105
X124.485Y-62.105
X125.675Y-62.105
X128.475Y-70.25
X129.3Y-44.8
X129.8Y-46.2
X130.45Y-59.72
X139.0Y-64.8
X145.0Y-64.8
X149.0Y-55.3
X154.5Y-55.3
T3
X109.5Y-43.18
X109.5Y-45.72
T2
G00X116.63Y-42.5
M15
G01X116.63Y-41.3
M16
G05
G00X122.28Y-42.5
M15
G01X122.28Y-41.3
M16
G05
M30
