%TF.GenerationSoftware,KiCad,Pcbnew,7.0.10*%
%TF.CreationDate,2024-02-26T14:54:02+00:00*%
%TF.ProjectId,rp2040_game_con,72703230-3430-45f6-9761-6d655f636f6e,rev?*%
%TF.SameCoordinates,Original*%
%TF.FileFunction,Soldermask,Top*%
%TF.FilePolarity,Negative*%
%FSLAX46Y46*%
G04 Gerber Fmt 4.6, Leading zero omitted, Abs format (unit mm)*
G04 Created by KiCad (PCBNEW 7.0.10) date 2024-02-26 14:54:02*
%MOMM*%
%LPD*%
G01*
G04 APERTURE LIST*
G04 Aperture macros list*
%AMRoundRect*
0 Rectangle with rounded corners*
0 $1 Rounding radius*
0 $2 $3 $4 $5 $6 $7 $8 $9 X,Y pos of 4 corners*
0 Add a 4 corners polygon primitive as box body*
4,1,4,$2,$3,$4,$5,$6,$7,$8,$9,$2,$3,0*
0 Add four circle primitives for the rounded corners*
1,1,$1+$1,$2,$3*
1,1,$1+$1,$4,$5*
1,1,$1+$1,$6,$7*
1,1,$1+$1,$8,$9*
0 Add four rect primitives between the rounded corners*
20,1,$1+$1,$2,$3,$4,$5,0*
20,1,$1+$1,$4,$5,$6,$7,0*
20,1,$1+$1,$6,$7,$8,$9,0*
20,1,$1+$1,$8,$9,$2,$3,0*%
G04 Aperture macros list end*
%ADD10RoundRect,0.140000X-0.140000X-0.170000X0.140000X-0.170000X0.140000X0.170000X-0.140000X0.170000X0*%
%ADD11RoundRect,0.250000X-0.325000X-0.650000X0.325000X-0.650000X0.325000X0.650000X-0.325000X0.650000X0*%
%ADD12RoundRect,0.135000X-0.185000X0.135000X-0.185000X-0.135000X0.185000X-0.135000X0.185000X0.135000X0*%
%ADD13RoundRect,0.140000X0.170000X-0.140000X0.170000X0.140000X-0.170000X0.140000X-0.170000X-0.140000X0*%
%ADD14RoundRect,0.050000X-0.387500X-0.050000X0.387500X-0.050000X0.387500X0.050000X-0.387500X0.050000X0*%
%ADD15RoundRect,0.050000X-0.050000X-0.387500X0.050000X-0.387500X0.050000X0.387500X-0.050000X0.387500X0*%
%ADD16R,3.200000X3.200000*%
%ADD17R,0.700000X0.750000*%
%ADD18R,1.700000X1.700000*%
%ADD19O,1.700000X1.700000*%
%ADD20RoundRect,0.140000X0.140000X0.170000X-0.140000X0.170000X-0.140000X-0.170000X0.140000X-0.170000X0*%
%ADD21RoundRect,0.135000X0.185000X-0.135000X0.185000X0.135000X-0.185000X0.135000X-0.185000X-0.135000X0*%
%ADD22R,1.200000X1.100000*%
%ADD23RoundRect,0.150000X-0.650000X-0.150000X0.650000X-0.150000X0.650000X0.150000X-0.650000X0.150000X0*%
%ADD24C,0.600000*%
%ADD25R,0.400000X2.100000*%
%ADD26R,1.500000X1.000000*%
%ADD27O,1.100000X2.400000*%
%ADD28R,1.900000X1.900000*%
%ADD29RoundRect,0.140000X-0.170000X0.140000X-0.170000X-0.140000X0.170000X-0.140000X0.170000X0.140000X0*%
%ADD30R,1.500000X2.000000*%
%ADD31R,3.800000X2.000000*%
G04 APERTURE END LIST*
D10*
%TO.C,C4*%
X111925000Y-79495000D03*
X112885000Y-79495000D03*
%TD*%
D11*
%TO.C,C3*%
X127500000Y-57470000D03*
X130450000Y-57470000D03*
%TD*%
D12*
%TO.C,R2*%
X119300000Y-61780000D03*
X119300000Y-62800000D03*
%TD*%
D13*
%TO.C,C9*%
X123305000Y-64345000D03*
X123305000Y-63385000D03*
%TD*%
D12*
%TO.C,R1*%
X112500000Y-46980000D03*
X112500000Y-48000000D03*
%TD*%
D14*
%TO.C,U3*%
X115947500Y-66832500D03*
X115947500Y-67232500D03*
X115947500Y-67632500D03*
X115947500Y-68032500D03*
X115947500Y-68432500D03*
X115947500Y-68832500D03*
X115947500Y-69232500D03*
X115947500Y-69632500D03*
X115947500Y-70032500D03*
X115947500Y-70432500D03*
X115947500Y-70832500D03*
X115947500Y-71232500D03*
X115947500Y-71632500D03*
X115947500Y-72032500D03*
D15*
X116785000Y-72870000D03*
X117185000Y-72870000D03*
X117585000Y-72870000D03*
X117985000Y-72870000D03*
X118385000Y-72870000D03*
X118785000Y-72870000D03*
X119185000Y-72870000D03*
X119585000Y-72870000D03*
X119985000Y-72870000D03*
X120385000Y-72870000D03*
X120785000Y-72870000D03*
X121185000Y-72870000D03*
X121585000Y-72870000D03*
X121985000Y-72870000D03*
D14*
X122822500Y-72032500D03*
X122822500Y-71632500D03*
X122822500Y-71232500D03*
X122822500Y-70832500D03*
X122822500Y-70432500D03*
X122822500Y-70032500D03*
X122822500Y-69632500D03*
X122822500Y-69232500D03*
X122822500Y-68832500D03*
X122822500Y-68432500D03*
X122822500Y-68032500D03*
X122822500Y-67632500D03*
X122822500Y-67232500D03*
X122822500Y-66832500D03*
D15*
X121985000Y-65995000D03*
X121585000Y-65995000D03*
X121185000Y-65995000D03*
X120785000Y-65995000D03*
X120385000Y-65995000D03*
X119985000Y-65995000D03*
X119585000Y-65995000D03*
X119185000Y-65995000D03*
X118785000Y-65995000D03*
X118385000Y-65995000D03*
X117985000Y-65995000D03*
X117585000Y-65995000D03*
X117185000Y-65995000D03*
X116785000Y-65995000D03*
D16*
X119385000Y-69432500D03*
%TD*%
D17*
%TO.C,U4*%
X93400000Y-53975000D03*
X96600000Y-53975000D03*
X93400000Y-55625000D03*
X96600000Y-55625000D03*
%TD*%
D18*
%TO.C,J1*%
X109500000Y-43180000D03*
D19*
X109500000Y-45720000D03*
%TD*%
D13*
%TO.C,C7*%
X122075000Y-64255000D03*
X122075000Y-63295000D03*
%TD*%
D10*
%TO.C,C14*%
X125895000Y-70255000D03*
X126855000Y-70255000D03*
%TD*%
D20*
%TO.C,C5*%
X118825000Y-78215000D03*
X117865000Y-78215000D03*
%TD*%
D13*
%TO.C,C8*%
X116600000Y-61980000D03*
X116600000Y-61020000D03*
%TD*%
D21*
%TO.C,R3*%
X120300000Y-62800000D03*
X120300000Y-61780000D03*
%TD*%
D10*
%TO.C,C2*%
X113220000Y-51400000D03*
X114180000Y-51400000D03*
%TD*%
D13*
%TO.C,C11*%
X118300000Y-62300000D03*
X118300000Y-61340000D03*
%TD*%
D22*
%TO.C,Y1*%
X116245000Y-78015000D03*
X114345000Y-78015000D03*
X114345000Y-79515000D03*
X116245000Y-79515000D03*
%TD*%
D17*
%TO.C,U8*%
X140015000Y-62150000D03*
X143215000Y-62150000D03*
X140015000Y-63800000D03*
X143215000Y-63800000D03*
%TD*%
D23*
%TO.C,U1*%
X108390000Y-53295000D03*
X108390000Y-54565000D03*
X108390000Y-55835000D03*
X108390000Y-57105000D03*
X115590000Y-57105000D03*
X115590000Y-55835000D03*
X115590000Y-54565000D03*
X115590000Y-53295000D03*
%TD*%
D17*
%TO.C,U5*%
X101400000Y-61950000D03*
X104600000Y-61950000D03*
X101400000Y-63600000D03*
X104600000Y-63600000D03*
%TD*%
D20*
%TO.C,C10*%
X114695000Y-65725000D03*
X113735000Y-65725000D03*
%TD*%
D13*
%TO.C,C12*%
X125705000Y-64345000D03*
X125705000Y-63385000D03*
%TD*%
D17*
%TO.C,U9*%
X149900000Y-51975000D03*
X153100000Y-51975000D03*
X149900000Y-53625000D03*
X153100000Y-53625000D03*
%TD*%
%TO.C,U7*%
X93300000Y-69975000D03*
X96500000Y-69975000D03*
X93300000Y-71625000D03*
X96500000Y-71625000D03*
%TD*%
D20*
%TO.C,C15*%
X111875000Y-69400000D03*
X110915000Y-69400000D03*
%TD*%
D24*
%TO.C,J2*%
X121455000Y-44000000D03*
X117455000Y-44000000D03*
D25*
X120755000Y-44950000D03*
X120105000Y-44950000D03*
X119455000Y-44950000D03*
X118805000Y-44950000D03*
X118155000Y-44950000D03*
D26*
X122655000Y-44150000D03*
D27*
X122280000Y-41900000D03*
D28*
X120555000Y-41900000D03*
X118355000Y-41900000D03*
D27*
X116630000Y-41900000D03*
D26*
X116255000Y-44150000D03*
%TD*%
D11*
%TO.C,C1*%
X124685000Y-45080000D03*
X127635000Y-45080000D03*
%TD*%
D17*
%TO.C,U6*%
X85400000Y-61950000D03*
X88600000Y-61950000D03*
X85400000Y-63600000D03*
X88600000Y-63600000D03*
%TD*%
D29*
%TO.C,C16*%
X118975000Y-75515000D03*
X118975000Y-76475000D03*
%TD*%
D13*
%TO.C,C13*%
X124475000Y-64345000D03*
X124475000Y-63385000D03*
%TD*%
D30*
%TO.C,U2*%
X128600000Y-48160000D03*
X126300000Y-48160000D03*
X124000000Y-48160000D03*
D31*
X126300000Y-54460000D03*
%TD*%
D29*
%TO.C,C6*%
X120095000Y-75515000D03*
X120095000Y-76475000D03*
%TD*%
M02*
