M48
; DRILL file {KiCad 7.0.0-da2b9df05c~163~ubuntu20.04.1} date Tue 09 May 2023 09:55:47 BST
; FORMAT={-:-/ absolute / metric / decimal}
; #@! TF.CreationDate,2023-05-09T09:55:47+01:00
; #@! TF.GenerationSoftware,Kicad,Pcbnew,7.0.0-da2b9df05c~163~ubuntu20.04.1
; #@! TF.FileFunction,Plated,1,2,PTH
FMAT,2
METRIC
; #@! TA.AperFunction,Plated,PTH,ViaDrill
T1C0.400
; #@! TA.AperFunction,Plated,PTH,ComponentDrill
T2C1.000
%
G90
G05
T1
X108.825Y-58.925
X108.975Y-72.025
X110.0Y-83.375
X111.475Y-67.575
X113.7Y-41.8
X114.15Y-49.9
X114.69Y-44.07
X114.925Y-80.05
X116.65Y-63.94
X117.25Y-83.42
X117.85Y-74.375
X117.875Y-72.275
X118.14Y-63.94
X118.8Y-83.41
X119.0Y-73.275
X119.01Y-81.27
X119.95Y-72.25
X119.975Y-74.375
X120.05Y-81.55
X120.96Y-82.18
X121.59Y-65.95
X122.04Y-80.65
X122.78Y-65.98
X123.96Y-65.98
X125.15Y-65.98
X125.8Y-41.825
X127.64Y-42.72
X127.95Y-74.125
X129.575Y-45.175
X130.45Y-59.72
T2
X101.6Y-43.18
X101.6Y-45.72
X101.6Y-48.26
X101.6Y-50.8
X101.6Y-53.34
X101.6Y-55.88
X101.6Y-58.42
X101.6Y-60.96
X101.6Y-63.5
X101.6Y-66.04
X101.6Y-68.58
X101.6Y-71.12
X101.6Y-73.66
X101.6Y-76.2
X101.6Y-78.74
X101.6Y-81.28
X101.6Y-83.82
X101.6Y-86.36
X106.68Y-43.18
X106.68Y-45.72
X137.16Y-43.18
X137.16Y-45.72
X137.16Y-48.26
X137.16Y-50.8
X137.16Y-53.34
X137.16Y-55.88
X137.16Y-58.42
X137.16Y-60.96
X137.16Y-63.5
X137.16Y-66.04
X137.16Y-68.58
X137.16Y-71.12
X137.16Y-73.66
X137.16Y-76.2
X137.16Y-78.74
X137.16Y-81.28
X137.16Y-83.82
X137.16Y-86.36
T0
M30
