%TF.GenerationSoftware,KiCad,Pcbnew,7.0.0-da2b9df05c~163~ubuntu20.04.1*%
%TF.CreationDate,2023-05-09T10:41:35+01:00*%
%TF.ProjectId,KiCAD_Board_3_Minimal_Full_RP2040,4b694341-445f-4426-9f61-72645f335f4d,rev?*%
%TF.SameCoordinates,Original*%
%TF.FileFunction,Profile,NP*%
%FSLAX46Y46*%
G04 Gerber Fmt 4.6, Leading zero omitted, Abs format (unit mm)*
G04 Created by KiCad (PCBNEW 7.0.0-da2b9df05c~163~ubuntu20.04.1) date 2023-05-09 10:41:35*
%MOMM*%
%LPD*%
G01*
G04 APERTURE LIST*
%TA.AperFunction,Profile*%
%ADD10C,0.264999*%
%TD*%
G04 APERTURE END LIST*
D10*
X137283876Y-39222713D02*
X137389677Y-39230758D01*
X137493939Y-39244007D01*
X137596532Y-39262328D01*
X137697325Y-39285591D01*
X137796187Y-39313664D01*
X137892987Y-39346418D01*
X137987595Y-39383720D01*
X138079879Y-39425441D01*
X138169708Y-39471449D01*
X138256952Y-39521613D01*
X138341479Y-39575802D01*
X138423159Y-39633886D01*
X138501861Y-39695734D01*
X138577453Y-39761214D01*
X138649806Y-39830196D01*
X138718788Y-39902549D01*
X138784268Y-39978142D01*
X138846116Y-40056843D01*
X138904200Y-40138524D01*
X138958389Y-40223051D01*
X139008553Y-40310295D01*
X139054561Y-40400124D01*
X139096281Y-40492408D01*
X139133584Y-40587015D01*
X139166338Y-40683816D01*
X139194411Y-40782678D01*
X139217674Y-40883471D01*
X139235995Y-40986064D01*
X139249244Y-41090327D01*
X139257289Y-41196128D01*
X139260000Y-41303336D01*
X139260000Y-87136662D01*
X139257289Y-87243871D01*
X139249244Y-87349672D01*
X139235995Y-87453934D01*
X139217674Y-87556528D01*
X139194411Y-87657321D01*
X139166338Y-87756183D01*
X139133584Y-87852984D01*
X139096281Y-87947591D01*
X139054561Y-88039875D01*
X139008553Y-88129705D01*
X138958389Y-88216949D01*
X138904200Y-88301476D01*
X138846116Y-88383156D01*
X138784268Y-88461858D01*
X138718788Y-88537451D01*
X138649806Y-88609804D01*
X138577453Y-88678786D01*
X138501861Y-88744266D01*
X138423159Y-88806114D01*
X138341479Y-88864198D01*
X138256952Y-88918387D01*
X138169708Y-88968551D01*
X138079879Y-89014559D01*
X137987595Y-89056280D01*
X137892987Y-89093582D01*
X137796187Y-89126336D01*
X137697325Y-89154409D01*
X137596532Y-89177672D01*
X137493939Y-89195994D01*
X137389677Y-89209242D01*
X137283876Y-89217287D01*
X137176668Y-89219998D01*
X101343334Y-89219998D01*
X101236126Y-89217287D01*
X101130325Y-89209242D01*
X101026062Y-89195994D01*
X100923469Y-89177672D01*
X100822676Y-89154409D01*
X100723814Y-89126336D01*
X100627013Y-89093582D01*
X100532406Y-89056280D01*
X100440122Y-89014559D01*
X100350293Y-88968551D01*
X100263049Y-88918387D01*
X100178522Y-88864198D01*
X100096842Y-88806114D01*
X100018140Y-88744266D01*
X99942547Y-88678786D01*
X99870194Y-88609804D01*
X99801212Y-88537451D01*
X99735732Y-88461858D01*
X99673884Y-88383156D01*
X99615800Y-88301476D01*
X99561611Y-88216949D01*
X99511447Y-88129705D01*
X99465439Y-88039875D01*
X99423719Y-87947591D01*
X99386416Y-87852984D01*
X99353662Y-87756183D01*
X99325589Y-87657321D01*
X99302326Y-87556528D01*
X99284005Y-87453934D01*
X99270756Y-87349672D01*
X99262711Y-87243871D01*
X99260000Y-87136662D01*
X99260000Y-41303336D01*
X99262711Y-41196128D01*
X99270756Y-41090327D01*
X99284005Y-40986064D01*
X99302326Y-40883471D01*
X99325589Y-40782678D01*
X99353662Y-40683816D01*
X99386416Y-40587015D01*
X99423719Y-40492408D01*
X99465439Y-40400124D01*
X99511447Y-40310295D01*
X99561611Y-40223051D01*
X99615800Y-40138524D01*
X99673884Y-40056843D01*
X99735732Y-39978142D01*
X99801212Y-39902549D01*
X99870194Y-39830196D01*
X99942547Y-39761214D01*
X100018140Y-39695734D01*
X100096842Y-39633886D01*
X100178522Y-39575802D01*
X100263049Y-39521613D01*
X100350293Y-39471449D01*
X100440122Y-39425441D01*
X100532406Y-39383720D01*
X100627013Y-39346418D01*
X100723814Y-39313664D01*
X100822676Y-39285591D01*
X100923469Y-39262328D01*
X101026062Y-39244007D01*
X101130325Y-39230758D01*
X101236126Y-39222713D01*
X101343334Y-39220002D01*
X137176668Y-39220002D01*
X137283876Y-39222713D01*
M02*
