%TF.GenerationSoftware,KiCad,Pcbnew,7.0.0-da2b9df05c~163~ubuntu20.04.1*%
%TF.CreationDate,2023-05-09T10:41:34+01:00*%
%TF.ProjectId,KiCAD_Board_3_Minimal_Full_RP2040,4b694341-445f-4426-9f61-72645f335f4d,rev?*%
%TF.SameCoordinates,Original*%
%TF.FileFunction,Paste,Top*%
%TF.FilePolarity,Positive*%
%FSLAX46Y46*%
G04 Gerber Fmt 4.6, Leading zero omitted, Abs format (unit mm)*
G04 Created by KiCad (PCBNEW 7.0.0-da2b9df05c~163~ubuntu20.04.1) date 2023-05-09 10:41:34*
%MOMM*%
%LPD*%
G01*
G04 APERTURE LIST*
G04 Aperture macros list*
%AMRoundRect*
0 Rectangle with rounded corners*
0 $1 Rounding radius*
0 $2 $3 $4 $5 $6 $7 $8 $9 X,Y pos of 4 corners*
0 Add a 4 corners polygon primitive as box body*
4,1,4,$2,$3,$4,$5,$6,$7,$8,$9,$2,$3,0*
0 Add four circle primitives for the rounded corners*
1,1,$1+$1,$2,$3*
1,1,$1+$1,$4,$5*
1,1,$1+$1,$6,$7*
1,1,$1+$1,$8,$9*
0 Add four rect primitives between the rounded corners*
20,1,$1+$1,$2,$3,$4,$5,0*
20,1,$1+$1,$4,$5,$6,$7,0*
20,1,$1+$1,$6,$7,$8,$9,0*
20,1,$1+$1,$8,$9,$2,$3,0*%
G04 Aperture macros list end*
%ADD10RoundRect,0.140000X-0.140000X-0.170000X0.140000X-0.170000X0.140000X0.170000X-0.140000X0.170000X0*%
%ADD11RoundRect,0.250000X-0.325000X-0.650000X0.325000X-0.650000X0.325000X0.650000X-0.325000X0.650000X0*%
%ADD12RoundRect,0.135000X-0.185000X0.135000X-0.185000X-0.135000X0.185000X-0.135000X0.185000X0.135000X0*%
%ADD13RoundRect,0.140000X0.170000X-0.140000X0.170000X0.140000X-0.170000X0.140000X-0.170000X-0.140000X0*%
%ADD14RoundRect,0.249999X-0.395001X-0.395001X0.395001X-0.395001X0.395001X0.395001X-0.395001X0.395001X0*%
%ADD15RoundRect,0.050000X-0.387500X-0.050000X0.387500X-0.050000X0.387500X0.050000X-0.387500X0.050000X0*%
%ADD16RoundRect,0.050000X-0.050000X-0.387500X0.050000X-0.387500X0.050000X0.387500X-0.050000X0.387500X0*%
%ADD17RoundRect,0.140000X0.140000X0.170000X-0.140000X0.170000X-0.140000X-0.170000X0.140000X-0.170000X0*%
%ADD18RoundRect,0.135000X0.185000X-0.135000X0.185000X0.135000X-0.185000X0.135000X-0.185000X-0.135000X0*%
%ADD19R,1.200000X1.100000*%
%ADD20RoundRect,0.150000X-0.650000X-0.150000X0.650000X-0.150000X0.650000X0.150000X-0.650000X0.150000X0*%
%ADD21R,0.450000X1.380000*%
%ADD22R,2.375000X1.900000*%
%ADD23R,1.475000X2.100000*%
%ADD24R,1.175000X1.900000*%
%ADD25RoundRect,0.140000X-0.170000X0.140000X-0.170000X-0.140000X0.170000X-0.140000X0.170000X0.140000X0*%
%ADD26R,1.500000X2.000000*%
%ADD27R,3.800000X2.000000*%
G04 APERTURE END LIST*
D10*
%TO.C,C1*%
X111400000Y-83370000D03*
X112360000Y-83370000D03*
%TD*%
D11*
%TO.C,C16*%
X127500000Y-57470000D03*
X130450000Y-57470000D03*
%TD*%
D12*
%TO.C,R2*%
X119200000Y-65655000D03*
X119200000Y-66675000D03*
%TD*%
D13*
%TO.C,C11*%
X122780000Y-68220000D03*
X122780000Y-67260000D03*
%TD*%
D12*
%TO.C,R1*%
X109500000Y-45930000D03*
X109500000Y-46950000D03*
%TD*%
D14*
%TO.C,U1*%
X118060000Y-72507500D03*
X118060000Y-74107500D03*
X119660000Y-72507500D03*
X119660000Y-74107500D03*
D15*
X115422500Y-70707500D03*
X115422500Y-71107500D03*
X115422500Y-71507500D03*
X115422500Y-71907500D03*
X115422500Y-72307500D03*
X115422500Y-72707500D03*
X115422500Y-73107500D03*
X115422500Y-73507500D03*
X115422500Y-73907500D03*
X115422500Y-74307500D03*
X115422500Y-74707500D03*
X115422500Y-75107500D03*
X115422500Y-75507500D03*
X115422500Y-75907500D03*
D16*
X116260000Y-76745000D03*
X116660000Y-76745000D03*
X117060000Y-76745000D03*
X117460000Y-76745000D03*
X117860000Y-76745000D03*
X118260000Y-76745000D03*
X118660000Y-76745000D03*
X119060000Y-76745000D03*
X119460000Y-76745000D03*
X119860000Y-76745000D03*
X120260000Y-76745000D03*
X120660000Y-76745000D03*
X121060000Y-76745000D03*
X121460000Y-76745000D03*
D15*
X122297500Y-75907500D03*
X122297500Y-75507500D03*
X122297500Y-75107500D03*
X122297500Y-74707500D03*
X122297500Y-74307500D03*
X122297500Y-73907500D03*
X122297500Y-73507500D03*
X122297500Y-73107500D03*
X122297500Y-72707500D03*
X122297500Y-72307500D03*
X122297500Y-71907500D03*
X122297500Y-71507500D03*
X122297500Y-71107500D03*
X122297500Y-70707500D03*
D16*
X121460000Y-69870000D03*
X121060000Y-69870000D03*
X120660000Y-69870000D03*
X120260000Y-69870000D03*
X119860000Y-69870000D03*
X119460000Y-69870000D03*
X119060000Y-69870000D03*
X118660000Y-69870000D03*
X118260000Y-69870000D03*
X117860000Y-69870000D03*
X117460000Y-69870000D03*
X117060000Y-69870000D03*
X116660000Y-69870000D03*
X116260000Y-69870000D03*
%TD*%
D13*
%TO.C,C13*%
X121550000Y-68130000D03*
X121550000Y-67170000D03*
%TD*%
D10*
%TO.C,C8*%
X125370000Y-74130000D03*
X126330000Y-74130000D03*
%TD*%
D17*
%TO.C,C2*%
X118300000Y-82090000D03*
X117340000Y-82090000D03*
%TD*%
D13*
%TO.C,C14*%
X116600000Y-66150000D03*
X116600000Y-65190000D03*
%TD*%
D18*
%TO.C,R3*%
X120200000Y-66675000D03*
X120200000Y-65655000D03*
%TD*%
D10*
%TO.C,C3*%
X113220000Y-51400000D03*
X114180000Y-51400000D03*
%TD*%
D13*
%TO.C,C5*%
X118150000Y-66175000D03*
X118150000Y-65215000D03*
%TD*%
D19*
%TO.C,Y1*%
X115719999Y-81889999D03*
X113819999Y-81889999D03*
X113819999Y-83389999D03*
X115719999Y-83389999D03*
%TD*%
D20*
%TO.C,U2*%
X108390000Y-53295000D03*
X108390000Y-54565000D03*
X108390000Y-55835000D03*
X108390000Y-57105000D03*
X115590000Y-57105000D03*
X115590000Y-55835000D03*
X115590000Y-54565000D03*
X115590000Y-53295000D03*
%TD*%
D17*
%TO.C,C4*%
X114170000Y-69600000D03*
X113210000Y-69600000D03*
%TD*%
D13*
%TO.C,C6*%
X125180000Y-68220000D03*
X125180000Y-67260000D03*
%TD*%
D17*
%TO.C,C9*%
X111350000Y-73275000D03*
X110390000Y-73275000D03*
%TD*%
D21*
%TO.C,J2*%
X120736999Y-44499999D03*
X120086999Y-44499999D03*
X119436999Y-44498999D03*
X118786999Y-44499999D03*
X118136999Y-44499999D03*
D22*
X122463999Y-41839999D03*
D23*
X121899999Y-44139999D03*
D24*
X120276999Y-41839999D03*
X118596999Y-41839999D03*
D23*
X116974999Y-44139999D03*
D22*
X116445999Y-41839999D03*
%TD*%
D11*
%TO.C,C15*%
X124685000Y-45080000D03*
X127635000Y-45080000D03*
%TD*%
D25*
%TO.C,C10*%
X118450000Y-79390000D03*
X118450000Y-80350000D03*
%TD*%
D13*
%TO.C,C7*%
X123950000Y-68220000D03*
X123950000Y-67260000D03*
%TD*%
D26*
%TO.C,U3*%
X129589999Y-48159999D03*
X127289999Y-48159999D03*
X124989999Y-48159999D03*
D27*
X127289999Y-54459999D03*
%TD*%
D25*
%TO.C,C12*%
X119570000Y-79390000D03*
X119570000Y-80350000D03*
%TD*%
M02*
