%TF.GenerationSoftware,KiCad,Pcbnew,7.0.0-da2b9df05c~163~ubuntu20.04.1*%
%TF.CreationDate,2023-05-09T10:41:34+01:00*%
%TF.ProjectId,KiCAD_Board_3_Minimal_Full_RP2040,4b694341-445f-4426-9f61-72645f335f4d,rev?*%
%TF.SameCoordinates,Original*%
%TF.FileFunction,Copper,L2,Bot*%
%TF.FilePolarity,Positive*%
%FSLAX46Y46*%
G04 Gerber Fmt 4.6, Leading zero omitted, Abs format (unit mm)*
G04 Created by KiCad (PCBNEW 7.0.0-da2b9df05c~163~ubuntu20.04.1) date 2023-05-09 10:41:34*
%MOMM*%
%LPD*%
G01*
G04 APERTURE LIST*
%TA.AperFunction,ComponentPad*%
%ADD10R,1.700000X1.700000*%
%TD*%
%TA.AperFunction,ComponentPad*%
%ADD11O,1.700000X1.700000*%
%TD*%
%TA.AperFunction,ViaPad*%
%ADD12C,0.800000*%
%TD*%
%TA.AperFunction,Conductor*%
%ADD13C,0.150000*%
%TD*%
G04 APERTURE END LIST*
D10*
%TO.P,J3,1,Pin_1*%
%TO.N,/GPIO_0*%
X101599999Y-43179999D03*
D11*
%TO.P,J3,2,Pin_2*%
%TO.N,/GPIO_1*%
X101599999Y-45719999D03*
%TO.P,J3,3,Pin_3*%
%TO.N,/GPIO_2*%
X101599999Y-48259999D03*
%TO.P,J3,4,Pin_4*%
%TO.N,/GPIO_3*%
X101599999Y-50799999D03*
%TO.P,J3,5,Pin_5*%
%TO.N,/GPIO_4*%
X101599999Y-53339999D03*
%TO.P,J3,6,Pin_6*%
%TO.N,/GPIO_5*%
X101599999Y-55879999D03*
%TO.P,J3,7,Pin_7*%
%TO.N,/GPIO_6*%
X101599999Y-58419999D03*
%TO.P,J3,8,Pin_8*%
%TO.N,/GPIO_7*%
X101599999Y-60959999D03*
%TO.P,J3,9,Pin_9*%
%TO.N,/GPIO_8*%
X101599999Y-63499999D03*
%TO.P,J3,10,Pin_10*%
%TO.N,/GPIO_9*%
X101599999Y-66039999D03*
%TO.P,J3,11,Pin_11*%
%TO.N,/GPIO_10*%
X101599999Y-68579999D03*
%TO.P,J3,12,Pin_12*%
%TO.N,/GPIO_11*%
X101599999Y-71119999D03*
%TO.P,J3,13,Pin_13*%
%TO.N,/GPIO_12*%
X101599999Y-73659999D03*
%TO.P,J3,14,Pin_14*%
%TO.N,/GPIO_13*%
X101599999Y-76199999D03*
%TO.P,J3,15,Pin_15*%
%TO.N,/GPIO_14*%
X101599999Y-78739999D03*
%TO.P,J3,16,Pin_16*%
%TO.N,/GPIO_15*%
X101599999Y-81279999D03*
%TO.P,J3,17,Pin_17*%
%TO.N,/RUN*%
X101599999Y-83819999D03*
%TO.P,J3,18,Pin_18*%
%TO.N,+3.3V*%
X101599999Y-86359999D03*
%TD*%
D10*
%TO.P,J1,1,Pin_1*%
%TO.N,Net-(J1-Pin_1)*%
X106679999Y-43179999D03*
D11*
%TO.P,J1,2,Pin_2*%
%TO.N,GND*%
X106679999Y-45719999D03*
%TD*%
D10*
%TO.P,J5,1,Pin_1*%
%TO.N,/GPIO_16*%
X137159999Y-86359999D03*
D11*
%TO.P,J5,2,Pin_2*%
%TO.N,/GPIO_17*%
X137159999Y-83819999D03*
%TO.P,J5,3,Pin_3*%
%TO.N,/GPIO_18*%
X137159999Y-81279999D03*
%TO.P,J5,4,Pin_4*%
%TO.N,/GPIO_19*%
X137159999Y-78739999D03*
%TO.P,J5,5,Pin_5*%
%TO.N,/GPIO_20*%
X137159999Y-76199999D03*
%TO.P,J5,6,Pin_6*%
%TO.N,/GPIO_21*%
X137159999Y-73659999D03*
%TO.P,J5,7,Pin_7*%
%TO.N,/GPIO_22*%
X137159999Y-71119999D03*
%TO.P,J5,8,Pin_8*%
%TO.N,/GPIO_23*%
X137159999Y-68579999D03*
%TO.P,J5,9,Pin_9*%
%TO.N,/GPIO_24*%
X137159999Y-66039999D03*
%TO.P,J5,10,Pin_10*%
%TO.N,/GPIO_25*%
X137159999Y-63499999D03*
%TO.P,J5,11,Pin_11*%
%TO.N,/GPIO_26_ADC0*%
X137159999Y-60959999D03*
%TO.P,J5,12,Pin_12*%
%TO.N,/GPIO_26_ADC1*%
X137159999Y-58419999D03*
%TO.P,J5,13,Pin_13*%
%TO.N,/GPIO_26_ADC2*%
X137159999Y-55879999D03*
%TO.P,J5,14,Pin_14*%
%TO.N,/GPIO_26_ADC3*%
X137159999Y-53339999D03*
%TO.P,J5,15,Pin_15*%
%TO.N,/SWCLK*%
X137159999Y-50799999D03*
%TO.P,J5,16,Pin_16*%
%TO.N,/SWD*%
X137159999Y-48259999D03*
%TO.P,J5,17,Pin_17*%
%TO.N,GND*%
X137159999Y-45719999D03*
%TO.P,J5,18,Pin_18*%
X137159999Y-43179999D03*
%TD*%
D12*
%TO.N,GND*%
X118800000Y-83410000D03*
X120050000Y-81550000D03*
X125150000Y-65980000D03*
X117875000Y-72275000D03*
X108975000Y-72025000D03*
X119010000Y-81270000D03*
X114150000Y-49900000D03*
X116650000Y-63940000D03*
X127640000Y-42720000D03*
X114925000Y-80050000D03*
X122780000Y-65980000D03*
X127950000Y-74125000D03*
X117850000Y-74375000D03*
X119975000Y-74375000D03*
X119950000Y-72250000D03*
X118140000Y-63940000D03*
X110000000Y-83375000D03*
X130450000Y-59720000D03*
X119000000Y-73275000D03*
X111475000Y-67575000D03*
X129575000Y-45175000D03*
X108825000Y-58925000D03*
X123960000Y-65980000D03*
X117250000Y-83420000D03*
X121590000Y-65950000D03*
X125800000Y-41825000D03*
X114690000Y-44070000D03*
X113700000Y-41800000D03*
%TO.N,/SWCLK*%
X120960000Y-82180000D03*
%TO.N,/SWD*%
X122040000Y-80650000D03*
%TD*%
D13*
%TO.N,/SWCLK*%
X128860000Y-82180000D02*
X135090000Y-75950000D01*
X135910000Y-51150000D02*
X136810000Y-51150000D01*
X135090000Y-75950000D02*
X135090000Y-51970000D01*
X136810000Y-51150000D02*
X137160000Y-50800000D01*
X135090000Y-51970000D02*
X135910000Y-51150000D01*
X120960000Y-82180000D02*
X128860000Y-82180000D01*
%TO.N,/SWD*%
X134080000Y-51340000D02*
X137160000Y-48260000D01*
X122040000Y-80650000D02*
X128830000Y-80650000D01*
X128830000Y-80650000D02*
X134080000Y-75400000D01*
X134080000Y-75400000D02*
X134080000Y-51340000D01*
%TD*%
%TA.AperFunction,Conductor*%
%TO.N,GND*%
G36*
X137177939Y-39220534D02*
G01*
X137184699Y-39220704D01*
X137281354Y-39223149D01*
X137286315Y-39223399D01*
X137387145Y-39231066D01*
X137392079Y-39231566D01*
X137491389Y-39244186D01*
X137496286Y-39244933D01*
X137591065Y-39261860D01*
X137593994Y-39262383D01*
X137598850Y-39263376D01*
X137693118Y-39285133D01*
X137694799Y-39285521D01*
X137699578Y-39286750D01*
X137793682Y-39313472D01*
X137798361Y-39314927D01*
X137890505Y-39346105D01*
X137895053Y-39347769D01*
X137985136Y-39383287D01*
X137989583Y-39385167D01*
X138077470Y-39424900D01*
X138081805Y-39426989D01*
X138164708Y-39469449D01*
X138167324Y-39470789D01*
X138171542Y-39473080D01*
X138254619Y-39520848D01*
X138258701Y-39523328D01*
X138339204Y-39574937D01*
X138343135Y-39577592D01*
X138343149Y-39577602D01*
X138420928Y-39632913D01*
X138424724Y-39635752D01*
X138499678Y-39694654D01*
X138503327Y-39697666D01*
X138575323Y-39760031D01*
X138578818Y-39763207D01*
X138647752Y-39828929D01*
X138651091Y-39832268D01*
X138716774Y-39901161D01*
X138719950Y-39904655D01*
X138782337Y-39976676D01*
X138785344Y-39980320D01*
X138844252Y-40055281D01*
X138847078Y-40059059D01*
X138902414Y-40136875D01*
X138905063Y-40140796D01*
X138956671Y-40221298D01*
X138959152Y-40225381D01*
X139006920Y-40308459D01*
X139009210Y-40312676D01*
X139053006Y-40398187D01*
X139055100Y-40402534D01*
X139094825Y-40490403D01*
X139096704Y-40494844D01*
X139132225Y-40584931D01*
X139133902Y-40589515D01*
X139165070Y-40681631D01*
X139166528Y-40686318D01*
X139193257Y-40780446D01*
X139194486Y-40785226D01*
X139216623Y-40881145D01*
X139217617Y-40886004D01*
X139235064Y-40983704D01*
X139235816Y-40988628D01*
X139248431Y-41087899D01*
X139248936Y-41092874D01*
X139256599Y-41193665D01*
X139256852Y-41198666D01*
X139259468Y-41302063D01*
X139259500Y-41304567D01*
X139259500Y-87135431D01*
X139259468Y-87137935D01*
X139256852Y-87241331D01*
X139256599Y-87246332D01*
X139248936Y-87347123D01*
X139248431Y-87352098D01*
X139235816Y-87451371D01*
X139235064Y-87456296D01*
X139217617Y-87553991D01*
X139216623Y-87558848D01*
X139194486Y-87654770D01*
X139193257Y-87659551D01*
X139166528Y-87753679D01*
X139165070Y-87758366D01*
X139133902Y-87850482D01*
X139132225Y-87855065D01*
X139118080Y-87890940D01*
X139096712Y-87945135D01*
X139094829Y-87949588D01*
X139055105Y-88037456D01*
X139053010Y-88041803D01*
X139009210Y-88127322D01*
X139006920Y-88131539D01*
X138959158Y-88214607D01*
X138956677Y-88218691D01*
X138905062Y-88299202D01*
X138902398Y-88303144D01*
X138847094Y-88380915D01*
X138844255Y-88384712D01*
X138785346Y-88459675D01*
X138782334Y-88463324D01*
X138719950Y-88535342D01*
X138716774Y-88538837D01*
X138651091Y-88607730D01*
X138647752Y-88611069D01*
X138578818Y-88676791D01*
X138575323Y-88679967D01*
X138503327Y-88742332D01*
X138499678Y-88745344D01*
X138424724Y-88804246D01*
X138420928Y-88807085D01*
X138343148Y-88862397D01*
X138339204Y-88865061D01*
X138258701Y-88916670D01*
X138254619Y-88919150D01*
X138171542Y-88966918D01*
X138167324Y-88969209D01*
X138081815Y-89013004D01*
X138077468Y-89015099D01*
X137989594Y-89054826D01*
X137985124Y-89056716D01*
X137895083Y-89092217D01*
X137890498Y-89093895D01*
X137863391Y-89103066D01*
X137832213Y-89108286D01*
X117802442Y-89219496D01*
X117801892Y-89219498D01*
X101344565Y-89219498D01*
X101342061Y-89219466D01*
X101238664Y-89216850D01*
X101233662Y-89216597D01*
X101132868Y-89208933D01*
X101127896Y-89208428D01*
X101028634Y-89195816D01*
X101023707Y-89195064D01*
X100925998Y-89177614D01*
X100921140Y-89176620D01*
X100847983Y-89159736D01*
X100825220Y-89154482D01*
X100820444Y-89153255D01*
X100726316Y-89126526D01*
X100721629Y-89125068D01*
X100629517Y-89093901D01*
X100624934Y-89092224D01*
X100534875Y-89056716D01*
X100530405Y-89054825D01*
X100442532Y-89015098D01*
X100438185Y-89013004D01*
X100352674Y-88969208D01*
X100348457Y-88966918D01*
X100265389Y-88919156D01*
X100261305Y-88916675D01*
X100180794Y-88865060D01*
X100176852Y-88862396D01*
X100099081Y-88807092D01*
X100095284Y-88804253D01*
X100020321Y-88745344D01*
X100016672Y-88742332D01*
X99944654Y-88679948D01*
X99941159Y-88676772D01*
X99872266Y-88611089D01*
X99868927Y-88607750D01*
X99803207Y-88538818D01*
X99800030Y-88535323D01*
X99737662Y-88463322D01*
X99734652Y-88459674D01*
X99675751Y-88384722D01*
X99672911Y-88380925D01*
X99617599Y-88303145D01*
X99617598Y-88303144D01*
X99617590Y-88303132D01*
X99614935Y-88299201D01*
X99563326Y-88218698D01*
X99560846Y-88214616D01*
X99552721Y-88200485D01*
X99513072Y-88131529D01*
X99510800Y-88127346D01*
X99466982Y-88041792D01*
X99464890Y-88037448D01*
X99425177Y-87949603D01*
X99423295Y-87945153D01*
X99387778Y-87855076D01*
X99386101Y-87850494D01*
X99354926Y-87758360D01*
X99353468Y-87753672D01*
X99326748Y-87659574D01*
X99325519Y-87654795D01*
X99303374Y-87558845D01*
X99302380Y-87553986D01*
X99284928Y-87456263D01*
X99284185Y-87451396D01*
X99271565Y-87352078D01*
X99271064Y-87347140D01*
X99263397Y-87246310D01*
X99263147Y-87241349D01*
X99260532Y-87137933D01*
X99260500Y-87135431D01*
X99260500Y-86360000D01*
X100544417Y-86360000D01*
X100564700Y-86565934D01*
X100624768Y-86763954D01*
X100627062Y-86768246D01*
X100627063Y-86768248D01*
X100720023Y-86942163D01*
X100720025Y-86942166D01*
X100722315Y-86946450D01*
X100853590Y-87106410D01*
X101013550Y-87237685D01*
X101196046Y-87335232D01*
X101394066Y-87395300D01*
X101600000Y-87415583D01*
X101805934Y-87395300D01*
X102003954Y-87335232D01*
X102186450Y-87237685D01*
X102196121Y-87229748D01*
X136109500Y-87229748D01*
X136110446Y-87234506D01*
X136110447Y-87234511D01*
X136119230Y-87278666D01*
X136121133Y-87288231D01*
X136126550Y-87296338D01*
X136126551Y-87296340D01*
X136160028Y-87346441D01*
X136165448Y-87354552D01*
X136231769Y-87398867D01*
X136290252Y-87410500D01*
X138024890Y-87410500D01*
X138029748Y-87410500D01*
X138088231Y-87398867D01*
X138154552Y-87354552D01*
X138198867Y-87288231D01*
X138210500Y-87229748D01*
X138210500Y-85490252D01*
X138198867Y-85431769D01*
X138154552Y-85365448D01*
X138146441Y-85360028D01*
X138096340Y-85326551D01*
X138096338Y-85326550D01*
X138088231Y-85321133D01*
X138078667Y-85319230D01*
X138078666Y-85319230D01*
X138034511Y-85310447D01*
X138034506Y-85310446D01*
X138029748Y-85309500D01*
X136290252Y-85309500D01*
X136285494Y-85310446D01*
X136285488Y-85310447D01*
X136241333Y-85319230D01*
X136241330Y-85319231D01*
X136231769Y-85321133D01*
X136223663Y-85326549D01*
X136223659Y-85326551D01*
X136173558Y-85360028D01*
X136173555Y-85360030D01*
X136165448Y-85365448D01*
X136160030Y-85373555D01*
X136160028Y-85373558D01*
X136126551Y-85423659D01*
X136126549Y-85423663D01*
X136121133Y-85431769D01*
X136119231Y-85441330D01*
X136119230Y-85441333D01*
X136110447Y-85485488D01*
X136110446Y-85485494D01*
X136109500Y-85490252D01*
X136109500Y-87229748D01*
X102196121Y-87229748D01*
X102346410Y-87106410D01*
X102477685Y-86946450D01*
X102575232Y-86763954D01*
X102635300Y-86565934D01*
X102655583Y-86360000D01*
X102635300Y-86154066D01*
X102575232Y-85956046D01*
X102477685Y-85773550D01*
X102346410Y-85613590D01*
X102186450Y-85482315D01*
X102182166Y-85480025D01*
X102182163Y-85480023D01*
X102008248Y-85387063D01*
X102008246Y-85387062D01*
X102003954Y-85384768D01*
X101999293Y-85383354D01*
X101810590Y-85326112D01*
X101810586Y-85326111D01*
X101805934Y-85324700D01*
X101600000Y-85304417D01*
X101595157Y-85304894D01*
X101398908Y-85324223D01*
X101398907Y-85324223D01*
X101394066Y-85324700D01*
X101389415Y-85326110D01*
X101389409Y-85326112D01*
X101200706Y-85383354D01*
X101200702Y-85383355D01*
X101196046Y-85384768D01*
X101191757Y-85387060D01*
X101191751Y-85387063D01*
X101017836Y-85480023D01*
X101017828Y-85480028D01*
X101013550Y-85482315D01*
X101009796Y-85485394D01*
X101009791Y-85485399D01*
X100857354Y-85610500D01*
X100857348Y-85610505D01*
X100853590Y-85613590D01*
X100850505Y-85617348D01*
X100850500Y-85617354D01*
X100725399Y-85769791D01*
X100725394Y-85769796D01*
X100722315Y-85773550D01*
X100720028Y-85777828D01*
X100720023Y-85777836D01*
X100627063Y-85951751D01*
X100627060Y-85951757D01*
X100624768Y-85956046D01*
X100623355Y-85960702D01*
X100623354Y-85960706D01*
X100566112Y-86149409D01*
X100566110Y-86149415D01*
X100564700Y-86154066D01*
X100544417Y-86360000D01*
X99260500Y-86360000D01*
X99260500Y-83820000D01*
X100544417Y-83820000D01*
X100564700Y-84025934D01*
X100624768Y-84223954D01*
X100627062Y-84228246D01*
X100627063Y-84228248D01*
X100720023Y-84402163D01*
X100720025Y-84402166D01*
X100722315Y-84406450D01*
X100853590Y-84566410D01*
X101013550Y-84697685D01*
X101196046Y-84795232D01*
X101394066Y-84855300D01*
X101600000Y-84875583D01*
X101805934Y-84855300D01*
X102003954Y-84795232D01*
X102186450Y-84697685D01*
X102346410Y-84566410D01*
X102477685Y-84406450D01*
X102575232Y-84223954D01*
X102635300Y-84025934D01*
X102655583Y-83820000D01*
X136104417Y-83820000D01*
X136124700Y-84025934D01*
X136184768Y-84223954D01*
X136187062Y-84228246D01*
X136187063Y-84228248D01*
X136280023Y-84402163D01*
X136280025Y-84402166D01*
X136282315Y-84406450D01*
X136413590Y-84566410D01*
X136573550Y-84697685D01*
X136756046Y-84795232D01*
X136954066Y-84855300D01*
X137160000Y-84875583D01*
X137365934Y-84855300D01*
X137563954Y-84795232D01*
X137746450Y-84697685D01*
X137906410Y-84566410D01*
X138037685Y-84406450D01*
X138135232Y-84223954D01*
X138195300Y-84025934D01*
X138215583Y-83820000D01*
X138195300Y-83614066D01*
X138135232Y-83416046D01*
X138037685Y-83233550D01*
X137906410Y-83073590D01*
X137746450Y-82942315D01*
X137742166Y-82940025D01*
X137742163Y-82940023D01*
X137568248Y-82847063D01*
X137568246Y-82847062D01*
X137563954Y-82844768D01*
X137559293Y-82843354D01*
X137370590Y-82786112D01*
X137370586Y-82786111D01*
X137365934Y-82784700D01*
X137160000Y-82764417D01*
X137155157Y-82764894D01*
X136958908Y-82784223D01*
X136958907Y-82784223D01*
X136954066Y-82784700D01*
X136949415Y-82786110D01*
X136949409Y-82786112D01*
X136760706Y-82843354D01*
X136760702Y-82843355D01*
X136756046Y-82844768D01*
X136751757Y-82847060D01*
X136751751Y-82847063D01*
X136577836Y-82940023D01*
X136577828Y-82940028D01*
X136573550Y-82942315D01*
X136569796Y-82945394D01*
X136569791Y-82945399D01*
X136417354Y-83070500D01*
X136417348Y-83070505D01*
X136413590Y-83073590D01*
X136410505Y-83077348D01*
X136410500Y-83077354D01*
X136285399Y-83229791D01*
X136285394Y-83229796D01*
X136282315Y-83233550D01*
X136280028Y-83237828D01*
X136280023Y-83237836D01*
X136187063Y-83411751D01*
X136187060Y-83411757D01*
X136184768Y-83416046D01*
X136183355Y-83420702D01*
X136183354Y-83420706D01*
X136126112Y-83609409D01*
X136126110Y-83609415D01*
X136124700Y-83614066D01*
X136104417Y-83820000D01*
X102655583Y-83820000D01*
X102635300Y-83614066D01*
X102575232Y-83416046D01*
X102477685Y-83233550D01*
X102346410Y-83073590D01*
X102186450Y-82942315D01*
X102182166Y-82940025D01*
X102182163Y-82940023D01*
X102008248Y-82847063D01*
X102008246Y-82847062D01*
X102003954Y-82844768D01*
X101999293Y-82843354D01*
X101810590Y-82786112D01*
X101810586Y-82786111D01*
X101805934Y-82784700D01*
X101600000Y-82764417D01*
X101595157Y-82764894D01*
X101398908Y-82784223D01*
X101398907Y-82784223D01*
X101394066Y-82784700D01*
X101389415Y-82786110D01*
X101389409Y-82786112D01*
X101200706Y-82843354D01*
X101200702Y-82843355D01*
X101196046Y-82844768D01*
X101191757Y-82847060D01*
X101191751Y-82847063D01*
X101017836Y-82940023D01*
X101017828Y-82940028D01*
X101013550Y-82942315D01*
X101009796Y-82945394D01*
X101009791Y-82945399D01*
X100857354Y-83070500D01*
X100857348Y-83070505D01*
X100853590Y-83073590D01*
X100850505Y-83077348D01*
X100850500Y-83077354D01*
X100725399Y-83229791D01*
X100725394Y-83229796D01*
X100722315Y-83233550D01*
X100720028Y-83237828D01*
X100720023Y-83237836D01*
X100627063Y-83411751D01*
X100627060Y-83411757D01*
X100624768Y-83416046D01*
X100623355Y-83420702D01*
X100623354Y-83420706D01*
X100566112Y-83609409D01*
X100566110Y-83609415D01*
X100564700Y-83614066D01*
X100544417Y-83820000D01*
X99260500Y-83820000D01*
X99260500Y-81280000D01*
X100544417Y-81280000D01*
X100564700Y-81485934D01*
X100566111Y-81490586D01*
X100566112Y-81490590D01*
X100615372Y-81652980D01*
X100624768Y-81683954D01*
X100627062Y-81688246D01*
X100627063Y-81688248D01*
X100720023Y-81862163D01*
X100720025Y-81862166D01*
X100722315Y-81866450D01*
X100725398Y-81870207D01*
X100725399Y-81870208D01*
X100745162Y-81894290D01*
X100853590Y-82026410D01*
X101013550Y-82157685D01*
X101196046Y-82255232D01*
X101394066Y-82315300D01*
X101600000Y-82335583D01*
X101805934Y-82315300D01*
X102003954Y-82255232D01*
X102144702Y-82180000D01*
X120354318Y-82180000D01*
X120355165Y-82186434D01*
X120374108Y-82330326D01*
X120374109Y-82330331D01*
X120374956Y-82336762D01*
X120377439Y-82342758D01*
X120377440Y-82342759D01*
X120425586Y-82458995D01*
X120435464Y-82482841D01*
X120531718Y-82608282D01*
X120657159Y-82704536D01*
X120803238Y-82765044D01*
X120923335Y-82780855D01*
X120948917Y-82784223D01*
X120960000Y-82785682D01*
X120971083Y-82784223D01*
X120985569Y-82782315D01*
X121116762Y-82765044D01*
X121262841Y-82704536D01*
X121388282Y-82608282D01*
X121475794Y-82494233D01*
X121510550Y-82465710D01*
X121554337Y-82455500D01*
X128823116Y-82455500D01*
X128842428Y-82457401D01*
X128860000Y-82460897D01*
X128887132Y-82455500D01*
X128887133Y-82455500D01*
X128967495Y-82439515D01*
X129009465Y-82411471D01*
X129035622Y-82393994D01*
X129035623Y-82393992D01*
X129058624Y-82378624D01*
X129068575Y-82363729D01*
X129080882Y-82348732D01*
X130149614Y-81280000D01*
X136104417Y-81280000D01*
X136124700Y-81485934D01*
X136126111Y-81490586D01*
X136126112Y-81490590D01*
X136175372Y-81652980D01*
X136184768Y-81683954D01*
X136187062Y-81688246D01*
X136187063Y-81688248D01*
X136280023Y-81862163D01*
X136280025Y-81862166D01*
X136282315Y-81866450D01*
X136285398Y-81870207D01*
X136285399Y-81870208D01*
X136305162Y-81894290D01*
X136413590Y-82026410D01*
X136573550Y-82157685D01*
X136756046Y-82255232D01*
X136954066Y-82315300D01*
X137160000Y-82335583D01*
X137365934Y-82315300D01*
X137563954Y-82255232D01*
X137746450Y-82157685D01*
X137906410Y-82026410D01*
X138037685Y-81866450D01*
X138135232Y-81683954D01*
X138195300Y-81485934D01*
X138215583Y-81280000D01*
X138195300Y-81074066D01*
X138135232Y-80876046D01*
X138037685Y-80693550D01*
X137906410Y-80533590D01*
X137746450Y-80402315D01*
X137742166Y-80400025D01*
X137742163Y-80400023D01*
X137568248Y-80307063D01*
X137568246Y-80307062D01*
X137563954Y-80304768D01*
X137559293Y-80303354D01*
X137370590Y-80246112D01*
X137370586Y-80246111D01*
X137365934Y-80244700D01*
X137160000Y-80224417D01*
X137155157Y-80224894D01*
X136958908Y-80244223D01*
X136958907Y-80244223D01*
X136954066Y-80244700D01*
X136949415Y-80246110D01*
X136949409Y-80246112D01*
X136760706Y-80303354D01*
X136760702Y-80303355D01*
X136756046Y-80304768D01*
X136751757Y-80307060D01*
X136751751Y-80307063D01*
X136577836Y-80400023D01*
X136577828Y-80400028D01*
X136573550Y-80402315D01*
X136569796Y-80405394D01*
X136569791Y-80405399D01*
X136417354Y-80530500D01*
X136417348Y-80530505D01*
X136413590Y-80533590D01*
X136410505Y-80537348D01*
X136410500Y-80537354D01*
X136285399Y-80689791D01*
X136285394Y-80689796D01*
X136282315Y-80693550D01*
X136280028Y-80697828D01*
X136280023Y-80697836D01*
X136187063Y-80871751D01*
X136187060Y-80871757D01*
X136184768Y-80876046D01*
X136183355Y-80880702D01*
X136183354Y-80880706D01*
X136126112Y-81069409D01*
X136126110Y-81069415D01*
X136124700Y-81074066D01*
X136104417Y-81280000D01*
X130149614Y-81280000D01*
X132689613Y-78740000D01*
X136104417Y-78740000D01*
X136124700Y-78945934D01*
X136184768Y-79143954D01*
X136187062Y-79148246D01*
X136187063Y-79148248D01*
X136280023Y-79322163D01*
X136280025Y-79322166D01*
X136282315Y-79326450D01*
X136413590Y-79486410D01*
X136573550Y-79617685D01*
X136756046Y-79715232D01*
X136954066Y-79775300D01*
X137160000Y-79795583D01*
X137365934Y-79775300D01*
X137563954Y-79715232D01*
X137746450Y-79617685D01*
X137906410Y-79486410D01*
X138037685Y-79326450D01*
X138135232Y-79143954D01*
X138195300Y-78945934D01*
X138215583Y-78740000D01*
X138195300Y-78534066D01*
X138135232Y-78336046D01*
X138037685Y-78153550D01*
X137906410Y-77993590D01*
X137746450Y-77862315D01*
X137742166Y-77860025D01*
X137742163Y-77860023D01*
X137568248Y-77767063D01*
X137568246Y-77767062D01*
X137563954Y-77764768D01*
X137559293Y-77763354D01*
X137370590Y-77706112D01*
X137370586Y-77706111D01*
X137365934Y-77704700D01*
X137160000Y-77684417D01*
X137155157Y-77684894D01*
X136958908Y-77704223D01*
X136958907Y-77704223D01*
X136954066Y-77704700D01*
X136949415Y-77706110D01*
X136949409Y-77706112D01*
X136760706Y-77763354D01*
X136760702Y-77763355D01*
X136756046Y-77764768D01*
X136751757Y-77767060D01*
X136751751Y-77767063D01*
X136577836Y-77860023D01*
X136577828Y-77860028D01*
X136573550Y-77862315D01*
X136569796Y-77865394D01*
X136569791Y-77865399D01*
X136417354Y-77990500D01*
X136417348Y-77990505D01*
X136413590Y-77993590D01*
X136410505Y-77997348D01*
X136410500Y-77997354D01*
X136285399Y-78149791D01*
X136285394Y-78149796D01*
X136282315Y-78153550D01*
X136280028Y-78157828D01*
X136280023Y-78157836D01*
X136187063Y-78331751D01*
X136187060Y-78331757D01*
X136184768Y-78336046D01*
X136183355Y-78340702D01*
X136183354Y-78340706D01*
X136126112Y-78529409D01*
X136126110Y-78529415D01*
X136124700Y-78534066D01*
X136104417Y-78740000D01*
X132689613Y-78740000D01*
X135229613Y-76200000D01*
X136104417Y-76200000D01*
X136124700Y-76405934D01*
X136184768Y-76603954D01*
X136187062Y-76608246D01*
X136187063Y-76608248D01*
X136280023Y-76782163D01*
X136280025Y-76782166D01*
X136282315Y-76786450D01*
X136413590Y-76946410D01*
X136573550Y-77077685D01*
X136756046Y-77175232D01*
X136954066Y-77235300D01*
X137160000Y-77255583D01*
X137365934Y-77235300D01*
X137563954Y-77175232D01*
X137746450Y-77077685D01*
X137906410Y-76946410D01*
X138037685Y-76786450D01*
X138135232Y-76603954D01*
X138195300Y-76405934D01*
X138215583Y-76200000D01*
X138195300Y-75994066D01*
X138135232Y-75796046D01*
X138037685Y-75613550D01*
X137906410Y-75453590D01*
X137852761Y-75409562D01*
X137750208Y-75325399D01*
X137750207Y-75325398D01*
X137746450Y-75322315D01*
X137742166Y-75320025D01*
X137742163Y-75320023D01*
X137568248Y-75227063D01*
X137568246Y-75227062D01*
X137563954Y-75224768D01*
X137559293Y-75223354D01*
X137370590Y-75166112D01*
X137370586Y-75166111D01*
X137365934Y-75164700D01*
X137160000Y-75144417D01*
X137155157Y-75144894D01*
X136958908Y-75164223D01*
X136958907Y-75164223D01*
X136954066Y-75164700D01*
X136949415Y-75166110D01*
X136949409Y-75166112D01*
X136760706Y-75223354D01*
X136760702Y-75223355D01*
X136756046Y-75224768D01*
X136751757Y-75227060D01*
X136751751Y-75227063D01*
X136577836Y-75320023D01*
X136577828Y-75320028D01*
X136573550Y-75322315D01*
X136569796Y-75325394D01*
X136569791Y-75325399D01*
X136417354Y-75450500D01*
X136417348Y-75450505D01*
X136413590Y-75453590D01*
X136410505Y-75457348D01*
X136410500Y-75457354D01*
X136285399Y-75609791D01*
X136285394Y-75609796D01*
X136282315Y-75613550D01*
X136280028Y-75617828D01*
X136280023Y-75617836D01*
X136187063Y-75791751D01*
X136187060Y-75791757D01*
X136184768Y-75796046D01*
X136183355Y-75800702D01*
X136183354Y-75800706D01*
X136126112Y-75989409D01*
X136126110Y-75989415D01*
X136124700Y-75994066D01*
X136104417Y-76200000D01*
X135229613Y-76200000D01*
X135258729Y-76170884D01*
X135273726Y-76158577D01*
X135288624Y-76148624D01*
X135349515Y-76057495D01*
X135365500Y-75977133D01*
X135365500Y-75977129D01*
X135370896Y-75950000D01*
X135367401Y-75932433D01*
X135365500Y-75913121D01*
X135365500Y-73660000D01*
X136104417Y-73660000D01*
X136124700Y-73865934D01*
X136184768Y-74063954D01*
X136187062Y-74068246D01*
X136187063Y-74068248D01*
X136280023Y-74242163D01*
X136280025Y-74242166D01*
X136282315Y-74246450D01*
X136413590Y-74406410D01*
X136573550Y-74537685D01*
X136756046Y-74635232D01*
X136954066Y-74695300D01*
X137160000Y-74715583D01*
X137365934Y-74695300D01*
X137563954Y-74635232D01*
X137746450Y-74537685D01*
X137906410Y-74406410D01*
X138037685Y-74246450D01*
X138135232Y-74063954D01*
X138195300Y-73865934D01*
X138215583Y-73660000D01*
X138195300Y-73454066D01*
X138135232Y-73256046D01*
X138037685Y-73073550D01*
X137906410Y-72913590D01*
X137746450Y-72782315D01*
X137742166Y-72780025D01*
X137742163Y-72780023D01*
X137568248Y-72687063D01*
X137568246Y-72687062D01*
X137563954Y-72684768D01*
X137559293Y-72683354D01*
X137370590Y-72626112D01*
X137370586Y-72626111D01*
X137365934Y-72624700D01*
X137160000Y-72604417D01*
X137155157Y-72604894D01*
X136958908Y-72624223D01*
X136958907Y-72624223D01*
X136954066Y-72624700D01*
X136949415Y-72626110D01*
X136949409Y-72626112D01*
X136760706Y-72683354D01*
X136760702Y-72683355D01*
X136756046Y-72684768D01*
X136751757Y-72687060D01*
X136751751Y-72687063D01*
X136577836Y-72780023D01*
X136577828Y-72780028D01*
X136573550Y-72782315D01*
X136569796Y-72785394D01*
X136569791Y-72785399D01*
X136417354Y-72910500D01*
X136417348Y-72910505D01*
X136413590Y-72913590D01*
X136410505Y-72917348D01*
X136410500Y-72917354D01*
X136285399Y-73069791D01*
X136285394Y-73069796D01*
X136282315Y-73073550D01*
X136280028Y-73077828D01*
X136280023Y-73077836D01*
X136187063Y-73251751D01*
X136187060Y-73251757D01*
X136184768Y-73256046D01*
X136183355Y-73260702D01*
X136183354Y-73260706D01*
X136126112Y-73449409D01*
X136126110Y-73449415D01*
X136124700Y-73454066D01*
X136104417Y-73660000D01*
X135365500Y-73660000D01*
X135365500Y-71120000D01*
X136104417Y-71120000D01*
X136124700Y-71325934D01*
X136184768Y-71523954D01*
X136187062Y-71528246D01*
X136187063Y-71528248D01*
X136280023Y-71702163D01*
X136280025Y-71702166D01*
X136282315Y-71706450D01*
X136413590Y-71866410D01*
X136573550Y-71997685D01*
X136756046Y-72095232D01*
X136954066Y-72155300D01*
X137160000Y-72175583D01*
X137365934Y-72155300D01*
X137563954Y-72095232D01*
X137746450Y-71997685D01*
X137906410Y-71866410D01*
X138037685Y-71706450D01*
X138135232Y-71523954D01*
X138195300Y-71325934D01*
X138215583Y-71120000D01*
X138195300Y-70914066D01*
X138135232Y-70716046D01*
X138037685Y-70533550D01*
X137906410Y-70373590D01*
X137746450Y-70242315D01*
X137742166Y-70240025D01*
X137742163Y-70240023D01*
X137568248Y-70147063D01*
X137568246Y-70147062D01*
X137563954Y-70144768D01*
X137559293Y-70143354D01*
X137370590Y-70086112D01*
X137370586Y-70086111D01*
X137365934Y-70084700D01*
X137160000Y-70064417D01*
X137155157Y-70064894D01*
X136958908Y-70084223D01*
X136958907Y-70084223D01*
X136954066Y-70084700D01*
X136949415Y-70086110D01*
X136949409Y-70086112D01*
X136760706Y-70143354D01*
X136760702Y-70143355D01*
X136756046Y-70144768D01*
X136751757Y-70147060D01*
X136751751Y-70147063D01*
X136577836Y-70240023D01*
X136577828Y-70240028D01*
X136573550Y-70242315D01*
X136569796Y-70245394D01*
X136569791Y-70245399D01*
X136417354Y-70370500D01*
X136417348Y-70370505D01*
X136413590Y-70373590D01*
X136410505Y-70377348D01*
X136410500Y-70377354D01*
X136285399Y-70529791D01*
X136285394Y-70529796D01*
X136282315Y-70533550D01*
X136280028Y-70537828D01*
X136280023Y-70537836D01*
X136187063Y-70711751D01*
X136187060Y-70711757D01*
X136184768Y-70716046D01*
X136183355Y-70720702D01*
X136183354Y-70720706D01*
X136126112Y-70909409D01*
X136126110Y-70909415D01*
X136124700Y-70914066D01*
X136104417Y-71120000D01*
X135365500Y-71120000D01*
X135365500Y-68580000D01*
X136104417Y-68580000D01*
X136124700Y-68785934D01*
X136184768Y-68983954D01*
X136187062Y-68988246D01*
X136187063Y-68988248D01*
X136280023Y-69162163D01*
X136280025Y-69162166D01*
X136282315Y-69166450D01*
X136413590Y-69326410D01*
X136573550Y-69457685D01*
X136756046Y-69555232D01*
X136954066Y-69615300D01*
X137160000Y-69635583D01*
X137365934Y-69615300D01*
X137563954Y-69555232D01*
X137746450Y-69457685D01*
X137906410Y-69326410D01*
X138037685Y-69166450D01*
X138135232Y-68983954D01*
X138195300Y-68785934D01*
X138215583Y-68580000D01*
X138195300Y-68374066D01*
X138135232Y-68176046D01*
X138037685Y-67993550D01*
X137906410Y-67833590D01*
X137746450Y-67702315D01*
X137742166Y-67700025D01*
X137742163Y-67700023D01*
X137568248Y-67607063D01*
X137568246Y-67607062D01*
X137563954Y-67604768D01*
X137559293Y-67603354D01*
X137370590Y-67546112D01*
X137370586Y-67546111D01*
X137365934Y-67544700D01*
X137160000Y-67524417D01*
X137155157Y-67524894D01*
X136958908Y-67544223D01*
X136958907Y-67544223D01*
X136954066Y-67544700D01*
X136949415Y-67546110D01*
X136949409Y-67546112D01*
X136760706Y-67603354D01*
X136760702Y-67603355D01*
X136756046Y-67604768D01*
X136751757Y-67607060D01*
X136751751Y-67607063D01*
X136577836Y-67700023D01*
X136577828Y-67700028D01*
X136573550Y-67702315D01*
X136569796Y-67705394D01*
X136569791Y-67705399D01*
X136417354Y-67830500D01*
X136417348Y-67830505D01*
X136413590Y-67833590D01*
X136410505Y-67837348D01*
X136410500Y-67837354D01*
X136285399Y-67989791D01*
X136285394Y-67989796D01*
X136282315Y-67993550D01*
X136280028Y-67997828D01*
X136280023Y-67997836D01*
X136187063Y-68171751D01*
X136187060Y-68171757D01*
X136184768Y-68176046D01*
X136183355Y-68180702D01*
X136183354Y-68180706D01*
X136126112Y-68369409D01*
X136126110Y-68369415D01*
X136124700Y-68374066D01*
X136104417Y-68580000D01*
X135365500Y-68580000D01*
X135365500Y-66040000D01*
X136104417Y-66040000D01*
X136124700Y-66245934D01*
X136184768Y-66443954D01*
X136187062Y-66448246D01*
X136187063Y-66448248D01*
X136280023Y-66622163D01*
X136280025Y-66622166D01*
X136282315Y-66626450D01*
X136413590Y-66786410D01*
X136573550Y-66917685D01*
X136756046Y-67015232D01*
X136954066Y-67075300D01*
X137160000Y-67095583D01*
X137365934Y-67075300D01*
X137563954Y-67015232D01*
X137746450Y-66917685D01*
X137906410Y-66786410D01*
X138037685Y-66626450D01*
X138135232Y-66443954D01*
X138195300Y-66245934D01*
X138215583Y-66040000D01*
X138195300Y-65834066D01*
X138135232Y-65636046D01*
X138037685Y-65453550D01*
X137906410Y-65293590D01*
X137746450Y-65162315D01*
X137742166Y-65160025D01*
X137742163Y-65160023D01*
X137568248Y-65067063D01*
X137568246Y-65067062D01*
X137563954Y-65064768D01*
X137559293Y-65063354D01*
X137370590Y-65006112D01*
X137370586Y-65006111D01*
X137365934Y-65004700D01*
X137160000Y-64984417D01*
X137155157Y-64984894D01*
X136958908Y-65004223D01*
X136958907Y-65004223D01*
X136954066Y-65004700D01*
X136949415Y-65006110D01*
X136949409Y-65006112D01*
X136760706Y-65063354D01*
X136760702Y-65063355D01*
X136756046Y-65064768D01*
X136751757Y-65067060D01*
X136751751Y-65067063D01*
X136577836Y-65160023D01*
X136577828Y-65160028D01*
X136573550Y-65162315D01*
X136569796Y-65165394D01*
X136569791Y-65165399D01*
X136417354Y-65290500D01*
X136417348Y-65290505D01*
X136413590Y-65293590D01*
X136410505Y-65297348D01*
X136410500Y-65297354D01*
X136285399Y-65449791D01*
X136285394Y-65449796D01*
X136282315Y-65453550D01*
X136280028Y-65457828D01*
X136280023Y-65457836D01*
X136187063Y-65631751D01*
X136187060Y-65631757D01*
X136184768Y-65636046D01*
X136183355Y-65640702D01*
X136183354Y-65640706D01*
X136126112Y-65829409D01*
X136126110Y-65829415D01*
X136124700Y-65834066D01*
X136104417Y-66040000D01*
X135365500Y-66040000D01*
X135365500Y-63500000D01*
X136104417Y-63500000D01*
X136124700Y-63705934D01*
X136184768Y-63903954D01*
X136187062Y-63908246D01*
X136187063Y-63908248D01*
X136280023Y-64082163D01*
X136280025Y-64082166D01*
X136282315Y-64086450D01*
X136413590Y-64246410D01*
X136573550Y-64377685D01*
X136756046Y-64475232D01*
X136954066Y-64535300D01*
X137160000Y-64555583D01*
X137365934Y-64535300D01*
X137563954Y-64475232D01*
X137746450Y-64377685D01*
X137906410Y-64246410D01*
X138037685Y-64086450D01*
X138135232Y-63903954D01*
X138195300Y-63705934D01*
X138215583Y-63500000D01*
X138195300Y-63294066D01*
X138135232Y-63096046D01*
X138037685Y-62913550D01*
X137906410Y-62753590D01*
X137746450Y-62622315D01*
X137742166Y-62620025D01*
X137742163Y-62620023D01*
X137568248Y-62527063D01*
X137568246Y-62527062D01*
X137563954Y-62524768D01*
X137559293Y-62523354D01*
X137370590Y-62466112D01*
X137370586Y-62466111D01*
X137365934Y-62464700D01*
X137160000Y-62444417D01*
X137155157Y-62444894D01*
X136958908Y-62464223D01*
X136958907Y-62464223D01*
X136954066Y-62464700D01*
X136949415Y-62466110D01*
X136949409Y-62466112D01*
X136760706Y-62523354D01*
X136760702Y-62523355D01*
X136756046Y-62524768D01*
X136751757Y-62527060D01*
X136751751Y-62527063D01*
X136577836Y-62620023D01*
X136577828Y-62620028D01*
X136573550Y-62622315D01*
X136569796Y-62625394D01*
X136569791Y-62625399D01*
X136417354Y-62750500D01*
X136417348Y-62750505D01*
X136413590Y-62753590D01*
X136410505Y-62757348D01*
X136410500Y-62757354D01*
X136285399Y-62909791D01*
X136285394Y-62909796D01*
X136282315Y-62913550D01*
X136280028Y-62917828D01*
X136280023Y-62917836D01*
X136187063Y-63091751D01*
X136187060Y-63091757D01*
X136184768Y-63096046D01*
X136183355Y-63100702D01*
X136183354Y-63100706D01*
X136126112Y-63289409D01*
X136126110Y-63289415D01*
X136124700Y-63294066D01*
X136104417Y-63500000D01*
X135365500Y-63500000D01*
X135365500Y-60960000D01*
X136104417Y-60960000D01*
X136124700Y-61165934D01*
X136184768Y-61363954D01*
X136187062Y-61368246D01*
X136187063Y-61368248D01*
X136280023Y-61542163D01*
X136280025Y-61542166D01*
X136282315Y-61546450D01*
X136413590Y-61706410D01*
X136573550Y-61837685D01*
X136756046Y-61935232D01*
X136954066Y-61995300D01*
X137160000Y-62015583D01*
X137365934Y-61995300D01*
X137563954Y-61935232D01*
X137746450Y-61837685D01*
X137906410Y-61706410D01*
X138037685Y-61546450D01*
X138135232Y-61363954D01*
X138195300Y-61165934D01*
X138215583Y-60960000D01*
X138195300Y-60754066D01*
X138135232Y-60556046D01*
X138037685Y-60373550D01*
X137906410Y-60213590D01*
X137746450Y-60082315D01*
X137742166Y-60080025D01*
X137742163Y-60080023D01*
X137568248Y-59987063D01*
X137568246Y-59987062D01*
X137563954Y-59984768D01*
X137559293Y-59983354D01*
X137370590Y-59926112D01*
X137370586Y-59926111D01*
X137365934Y-59924700D01*
X137160000Y-59904417D01*
X137155157Y-59904894D01*
X136958908Y-59924223D01*
X136958907Y-59924223D01*
X136954066Y-59924700D01*
X136949415Y-59926110D01*
X136949409Y-59926112D01*
X136760706Y-59983354D01*
X136760702Y-59983355D01*
X136756046Y-59984768D01*
X136751757Y-59987060D01*
X136751751Y-59987063D01*
X136577836Y-60080023D01*
X136577828Y-60080028D01*
X136573550Y-60082315D01*
X136569796Y-60085394D01*
X136569791Y-60085399D01*
X136417354Y-60210500D01*
X136417348Y-60210505D01*
X136413590Y-60213590D01*
X136410505Y-60217348D01*
X136410500Y-60217354D01*
X136285399Y-60369791D01*
X136285394Y-60369796D01*
X136282315Y-60373550D01*
X136280028Y-60377828D01*
X136280023Y-60377836D01*
X136187063Y-60551751D01*
X136187060Y-60551757D01*
X136184768Y-60556046D01*
X136183355Y-60560702D01*
X136183354Y-60560706D01*
X136126112Y-60749409D01*
X136126110Y-60749415D01*
X136124700Y-60754066D01*
X136104417Y-60960000D01*
X135365500Y-60960000D01*
X135365500Y-58420000D01*
X136104417Y-58420000D01*
X136124700Y-58625934D01*
X136184768Y-58823954D01*
X136187062Y-58828246D01*
X136187063Y-58828248D01*
X136280023Y-59002163D01*
X136280025Y-59002166D01*
X136282315Y-59006450D01*
X136413590Y-59166410D01*
X136573550Y-59297685D01*
X136756046Y-59395232D01*
X136954066Y-59455300D01*
X137160000Y-59475583D01*
X137365934Y-59455300D01*
X137563954Y-59395232D01*
X137746450Y-59297685D01*
X137906410Y-59166410D01*
X138037685Y-59006450D01*
X138135232Y-58823954D01*
X138195300Y-58625934D01*
X138215583Y-58420000D01*
X138195300Y-58214066D01*
X138135232Y-58016046D01*
X138037685Y-57833550D01*
X137906410Y-57673590D01*
X137746450Y-57542315D01*
X137742166Y-57540025D01*
X137742163Y-57540023D01*
X137568248Y-57447063D01*
X137568246Y-57447062D01*
X137563954Y-57444768D01*
X137559293Y-57443354D01*
X137370590Y-57386112D01*
X137370586Y-57386111D01*
X137365934Y-57384700D01*
X137160000Y-57364417D01*
X137155157Y-57364894D01*
X136958908Y-57384223D01*
X136958907Y-57384223D01*
X136954066Y-57384700D01*
X136949415Y-57386110D01*
X136949409Y-57386112D01*
X136760706Y-57443354D01*
X136760702Y-57443355D01*
X136756046Y-57444768D01*
X136751757Y-57447060D01*
X136751751Y-57447063D01*
X136577836Y-57540023D01*
X136577828Y-57540028D01*
X136573550Y-57542315D01*
X136569796Y-57545394D01*
X136569791Y-57545399D01*
X136417354Y-57670500D01*
X136417348Y-57670505D01*
X136413590Y-57673590D01*
X136410505Y-57677348D01*
X136410500Y-57677354D01*
X136285399Y-57829791D01*
X136285394Y-57829796D01*
X136282315Y-57833550D01*
X136280028Y-57837828D01*
X136280023Y-57837836D01*
X136187063Y-58011751D01*
X136187060Y-58011757D01*
X136184768Y-58016046D01*
X136183355Y-58020702D01*
X136183354Y-58020706D01*
X136126112Y-58209409D01*
X136126110Y-58209415D01*
X136124700Y-58214066D01*
X136104417Y-58420000D01*
X135365500Y-58420000D01*
X135365500Y-55880000D01*
X136104417Y-55880000D01*
X136124700Y-56085934D01*
X136184768Y-56283954D01*
X136187062Y-56288246D01*
X136187063Y-56288248D01*
X136280023Y-56462163D01*
X136280025Y-56462166D01*
X136282315Y-56466450D01*
X136413590Y-56626410D01*
X136573550Y-56757685D01*
X136756046Y-56855232D01*
X136954066Y-56915300D01*
X137160000Y-56935583D01*
X137365934Y-56915300D01*
X137563954Y-56855232D01*
X137746450Y-56757685D01*
X137906410Y-56626410D01*
X138037685Y-56466450D01*
X138135232Y-56283954D01*
X138195300Y-56085934D01*
X138215583Y-55880000D01*
X138195300Y-55674066D01*
X138135232Y-55476046D01*
X138037685Y-55293550D01*
X137906410Y-55133590D01*
X137746450Y-55002315D01*
X137742166Y-55000025D01*
X137742163Y-55000023D01*
X137568248Y-54907063D01*
X137568246Y-54907062D01*
X137563954Y-54904768D01*
X137559293Y-54903354D01*
X137370590Y-54846112D01*
X137370586Y-54846111D01*
X137365934Y-54844700D01*
X137160000Y-54824417D01*
X137155157Y-54824894D01*
X136958908Y-54844223D01*
X136958907Y-54844223D01*
X136954066Y-54844700D01*
X136949415Y-54846110D01*
X136949409Y-54846112D01*
X136760706Y-54903354D01*
X136760702Y-54903355D01*
X136756046Y-54904768D01*
X136751757Y-54907060D01*
X136751751Y-54907063D01*
X136577836Y-55000023D01*
X136577828Y-55000028D01*
X136573550Y-55002315D01*
X136569796Y-55005394D01*
X136569791Y-55005399D01*
X136417354Y-55130500D01*
X136417348Y-55130505D01*
X136413590Y-55133590D01*
X136410505Y-55137348D01*
X136410500Y-55137354D01*
X136285399Y-55289791D01*
X136285394Y-55289796D01*
X136282315Y-55293550D01*
X136280028Y-55297828D01*
X136280023Y-55297836D01*
X136187063Y-55471751D01*
X136187060Y-55471757D01*
X136184768Y-55476046D01*
X136183355Y-55480702D01*
X136183354Y-55480706D01*
X136126112Y-55669409D01*
X136126110Y-55669415D01*
X136124700Y-55674066D01*
X136104417Y-55880000D01*
X135365500Y-55880000D01*
X135365500Y-53340000D01*
X136104417Y-53340000D01*
X136124700Y-53545934D01*
X136184768Y-53743954D01*
X136187062Y-53748246D01*
X136187063Y-53748248D01*
X136280023Y-53922163D01*
X136280025Y-53922166D01*
X136282315Y-53926450D01*
X136413590Y-54086410D01*
X136573550Y-54217685D01*
X136756046Y-54315232D01*
X136954066Y-54375300D01*
X137160000Y-54395583D01*
X137365934Y-54375300D01*
X137563954Y-54315232D01*
X137746450Y-54217685D01*
X137906410Y-54086410D01*
X138037685Y-53926450D01*
X138135232Y-53743954D01*
X138195300Y-53545934D01*
X138215583Y-53340000D01*
X138195300Y-53134066D01*
X138135232Y-52936046D01*
X138037685Y-52753550D01*
X137906410Y-52593590D01*
X137746450Y-52462315D01*
X137742166Y-52460025D01*
X137742163Y-52460023D01*
X137568248Y-52367063D01*
X137568246Y-52367062D01*
X137563954Y-52364768D01*
X137559293Y-52363354D01*
X137370590Y-52306112D01*
X137370586Y-52306111D01*
X137365934Y-52304700D01*
X137160000Y-52284417D01*
X137155157Y-52284894D01*
X136958908Y-52304223D01*
X136958907Y-52304223D01*
X136954066Y-52304700D01*
X136949415Y-52306110D01*
X136949409Y-52306112D01*
X136760706Y-52363354D01*
X136760702Y-52363355D01*
X136756046Y-52364768D01*
X136751757Y-52367060D01*
X136751751Y-52367063D01*
X136577836Y-52460023D01*
X136577828Y-52460028D01*
X136573550Y-52462315D01*
X136569796Y-52465394D01*
X136569791Y-52465399D01*
X136417354Y-52590500D01*
X136417348Y-52590505D01*
X136413590Y-52593590D01*
X136410505Y-52597348D01*
X136410500Y-52597354D01*
X136285399Y-52749791D01*
X136285394Y-52749796D01*
X136282315Y-52753550D01*
X136280028Y-52757828D01*
X136280023Y-52757836D01*
X136187063Y-52931751D01*
X136187060Y-52931757D01*
X136184768Y-52936046D01*
X136183355Y-52940702D01*
X136183354Y-52940706D01*
X136126112Y-53129409D01*
X136126110Y-53129415D01*
X136124700Y-53134066D01*
X136104417Y-53340000D01*
X135365500Y-53340000D01*
X135365500Y-52125124D01*
X135373036Y-52087238D01*
X135394496Y-52055120D01*
X135995120Y-51454496D01*
X136027238Y-51433036D01*
X136065124Y-51425500D01*
X136267538Y-51425500D01*
X136309866Y-51435005D01*
X136344066Y-51461695D01*
X136410500Y-51542645D01*
X136413590Y-51546410D01*
X136573550Y-51677685D01*
X136756046Y-51775232D01*
X136954066Y-51835300D01*
X137160000Y-51855583D01*
X137365934Y-51835300D01*
X137563954Y-51775232D01*
X137746450Y-51677685D01*
X137906410Y-51546410D01*
X138037685Y-51386450D01*
X138135232Y-51203954D01*
X138195300Y-51005934D01*
X138215583Y-50800000D01*
X138195300Y-50594066D01*
X138135232Y-50396046D01*
X138037685Y-50213550D01*
X137906410Y-50053590D01*
X137746450Y-49922315D01*
X137742166Y-49920025D01*
X137742163Y-49920023D01*
X137568248Y-49827063D01*
X137568246Y-49827062D01*
X137563954Y-49824768D01*
X137559293Y-49823354D01*
X137370590Y-49766112D01*
X137370586Y-49766111D01*
X137365934Y-49764700D01*
X137160000Y-49744417D01*
X137155157Y-49744894D01*
X136958908Y-49764223D01*
X136958907Y-49764223D01*
X136954066Y-49764700D01*
X136949415Y-49766110D01*
X136949409Y-49766112D01*
X136760706Y-49823354D01*
X136760702Y-49823355D01*
X136756046Y-49824768D01*
X136751757Y-49827060D01*
X136751751Y-49827063D01*
X136577836Y-49920023D01*
X136577828Y-49920028D01*
X136573550Y-49922315D01*
X136569796Y-49925394D01*
X136569791Y-49925399D01*
X136417354Y-50050500D01*
X136417348Y-50050505D01*
X136413590Y-50053590D01*
X136410505Y-50057348D01*
X136410500Y-50057354D01*
X136285399Y-50209791D01*
X136285394Y-50209796D01*
X136282315Y-50213550D01*
X136280028Y-50217828D01*
X136280023Y-50217836D01*
X136187063Y-50391751D01*
X136187060Y-50391757D01*
X136184768Y-50396046D01*
X136183355Y-50400702D01*
X136183354Y-50400706D01*
X136126112Y-50589409D01*
X136126110Y-50589415D01*
X136124700Y-50594066D01*
X136124224Y-50598897D01*
X136124222Y-50598908D01*
X136105874Y-50785204D01*
X136089666Y-50830502D01*
X136054019Y-50862810D01*
X136007351Y-50874500D01*
X135946884Y-50874500D01*
X135927571Y-50872598D01*
X135910000Y-50869103D01*
X135900438Y-50871005D01*
X135900433Y-50871005D01*
X135882871Y-50874497D01*
X135882867Y-50874500D01*
X135812067Y-50888582D01*
X135812062Y-50888583D01*
X135802505Y-50890485D01*
X135794400Y-50895899D01*
X135794398Y-50895901D01*
X135760534Y-50918528D01*
X135760531Y-50918530D01*
X135734382Y-50936001D01*
X135734376Y-50936007D01*
X135719483Y-50945958D01*
X135719480Y-50945960D01*
X135711376Y-50951376D01*
X135705960Y-50959480D01*
X135705956Y-50959485D01*
X135701422Y-50966271D01*
X135689114Y-50981268D01*
X134921268Y-51749114D01*
X134906271Y-51761422D01*
X134899482Y-51765958D01*
X134899477Y-51765962D01*
X134891376Y-51771376D01*
X134885961Y-51779479D01*
X134885959Y-51779482D01*
X134841041Y-51846705D01*
X134841040Y-51846708D01*
X134830485Y-51862505D01*
X134830484Y-51862506D01*
X134830485Y-51862506D01*
X134827621Y-51876902D01*
X134827620Y-51876905D01*
X134811005Y-51960438D01*
X134809103Y-51970000D01*
X134811005Y-51979561D01*
X134812598Y-51987569D01*
X134814500Y-52006884D01*
X134814500Y-75794877D01*
X134806964Y-75832763D01*
X134785504Y-75864881D01*
X128774880Y-81875504D01*
X128742762Y-81896964D01*
X128704876Y-81904500D01*
X121554337Y-81904500D01*
X121510550Y-81894290D01*
X121475795Y-81865767D01*
X121392236Y-81756871D01*
X121388282Y-81751718D01*
X121262841Y-81655464D01*
X121256847Y-81652981D01*
X121256845Y-81652980D01*
X121122759Y-81597440D01*
X121122758Y-81597439D01*
X121116762Y-81594956D01*
X121110331Y-81594109D01*
X121110326Y-81594108D01*
X120966434Y-81575165D01*
X120960000Y-81574318D01*
X120953566Y-81575165D01*
X120809673Y-81594108D01*
X120809666Y-81594109D01*
X120803238Y-81594956D01*
X120797243Y-81597439D01*
X120797240Y-81597440D01*
X120663154Y-81652980D01*
X120663149Y-81652982D01*
X120657159Y-81655464D01*
X120652015Y-81659411D01*
X120652010Y-81659414D01*
X120536871Y-81747763D01*
X120536866Y-81747767D01*
X120531718Y-81751718D01*
X120527767Y-81756866D01*
X120527763Y-81756871D01*
X120439414Y-81872010D01*
X120439411Y-81872015D01*
X120435464Y-81877159D01*
X120432982Y-81883149D01*
X120432980Y-81883154D01*
X120377440Y-82017240D01*
X120374956Y-82023238D01*
X120374109Y-82029666D01*
X120374108Y-82029673D01*
X120357662Y-82154600D01*
X120354318Y-82180000D01*
X102144702Y-82180000D01*
X102186450Y-82157685D01*
X102346410Y-82026410D01*
X102477685Y-81866450D01*
X102575232Y-81683954D01*
X102635300Y-81485934D01*
X102655583Y-81280000D01*
X102635300Y-81074066D01*
X102575232Y-80876046D01*
X102477685Y-80693550D01*
X102441945Y-80650000D01*
X121434318Y-80650000D01*
X121435165Y-80656434D01*
X121454108Y-80800326D01*
X121454109Y-80800331D01*
X121454956Y-80806762D01*
X121457439Y-80812758D01*
X121457440Y-80812759D01*
X121505586Y-80928995D01*
X121515464Y-80952841D01*
X121519413Y-80957988D01*
X121519414Y-80957989D01*
X121604909Y-81069409D01*
X121611718Y-81078282D01*
X121737159Y-81174536D01*
X121883238Y-81235044D01*
X122040000Y-81255682D01*
X122196762Y-81235044D01*
X122342841Y-81174536D01*
X122468282Y-81078282D01*
X122555794Y-80964233D01*
X122590550Y-80935710D01*
X122634337Y-80925500D01*
X128793116Y-80925500D01*
X128812428Y-80927401D01*
X128830000Y-80930897D01*
X128857132Y-80925500D01*
X128857133Y-80925500D01*
X128937495Y-80909515D01*
X128979465Y-80881471D01*
X129005622Y-80863994D01*
X129005623Y-80863992D01*
X129028624Y-80848624D01*
X129038575Y-80833729D01*
X129050882Y-80818732D01*
X134248732Y-75620882D01*
X134263729Y-75608575D01*
X134278624Y-75598624D01*
X134339515Y-75507495D01*
X134355500Y-75427133D01*
X134360897Y-75400000D01*
X134357401Y-75382428D01*
X134355500Y-75363116D01*
X134355500Y-51495124D01*
X134363036Y-51457238D01*
X134384496Y-51425120D01*
X134921034Y-50888582D01*
X136585745Y-49223869D01*
X136620875Y-49201220D01*
X136662223Y-49195087D01*
X136702417Y-49206566D01*
X136751748Y-49232935D01*
X136751751Y-49232936D01*
X136756046Y-49235232D01*
X136954066Y-49295300D01*
X137160000Y-49315583D01*
X137365934Y-49295300D01*
X137563954Y-49235232D01*
X137746450Y-49137685D01*
X137906410Y-49006410D01*
X138037685Y-48846450D01*
X138135232Y-48663954D01*
X138195300Y-48465934D01*
X138215583Y-48260000D01*
X138195300Y-48054066D01*
X138135232Y-47856046D01*
X138037685Y-47673550D01*
X137906410Y-47513590D01*
X137746450Y-47382315D01*
X137742166Y-47380025D01*
X137742163Y-47380023D01*
X137568248Y-47287063D01*
X137568246Y-47287062D01*
X137563954Y-47284768D01*
X137559293Y-47283354D01*
X137370590Y-47226112D01*
X137370586Y-47226111D01*
X137365934Y-47224700D01*
X137160000Y-47204417D01*
X137155157Y-47204894D01*
X136958908Y-47224223D01*
X136958907Y-47224223D01*
X136954066Y-47224700D01*
X136949415Y-47226110D01*
X136949409Y-47226112D01*
X136760706Y-47283354D01*
X136760702Y-47283355D01*
X136756046Y-47284768D01*
X136751757Y-47287060D01*
X136751751Y-47287063D01*
X136577836Y-47380023D01*
X136577828Y-47380028D01*
X136573550Y-47382315D01*
X136569796Y-47385394D01*
X136569791Y-47385399D01*
X136417354Y-47510500D01*
X136417348Y-47510505D01*
X136413590Y-47513590D01*
X136410505Y-47517348D01*
X136410500Y-47517354D01*
X136285399Y-47669791D01*
X136285394Y-47669796D01*
X136282315Y-47673550D01*
X136280028Y-47677828D01*
X136280023Y-47677836D01*
X136187063Y-47851751D01*
X136187060Y-47851757D01*
X136184768Y-47856046D01*
X136183355Y-47860702D01*
X136183354Y-47860706D01*
X136126112Y-48049409D01*
X136126110Y-48049415D01*
X136124700Y-48054066D01*
X136104417Y-48260000D01*
X136124700Y-48465934D01*
X136184768Y-48663954D01*
X136187062Y-48668246D01*
X136187063Y-48668248D01*
X136213433Y-48717582D01*
X136224911Y-48757776D01*
X136218778Y-48799124D01*
X136196127Y-48834255D01*
X133911268Y-51119114D01*
X133896271Y-51131422D01*
X133889482Y-51135958D01*
X133889477Y-51135962D01*
X133881376Y-51141376D01*
X133875961Y-51149479D01*
X133875959Y-51149482D01*
X133825901Y-51224398D01*
X133825899Y-51224401D01*
X133820485Y-51232505D01*
X133815514Y-51257495D01*
X133799103Y-51340000D01*
X133801005Y-51349561D01*
X133802598Y-51357569D01*
X133804500Y-51376884D01*
X133804500Y-75244876D01*
X133796964Y-75282762D01*
X133775504Y-75314880D01*
X128744880Y-80345504D01*
X128712762Y-80366964D01*
X128674876Y-80374500D01*
X122634337Y-80374500D01*
X122590550Y-80364290D01*
X122555795Y-80335767D01*
X122472236Y-80226871D01*
X122468282Y-80221718D01*
X122342841Y-80125464D01*
X122336847Y-80122981D01*
X122336845Y-80122980D01*
X122202759Y-80067440D01*
X122202758Y-80067439D01*
X122196762Y-80064956D01*
X122190331Y-80064109D01*
X122190326Y-80064108D01*
X122046434Y-80045165D01*
X122040000Y-80044318D01*
X122033566Y-80045165D01*
X121889673Y-80064108D01*
X121889666Y-80064109D01*
X121883238Y-80064956D01*
X121877243Y-80067439D01*
X121877240Y-80067440D01*
X121743154Y-80122980D01*
X121743149Y-80122982D01*
X121737159Y-80125464D01*
X121732015Y-80129411D01*
X121732010Y-80129414D01*
X121616871Y-80217763D01*
X121616866Y-80217767D01*
X121611718Y-80221718D01*
X121607767Y-80226866D01*
X121607763Y-80226871D01*
X121519414Y-80342010D01*
X121519411Y-80342015D01*
X121515464Y-80347159D01*
X121512982Y-80353149D01*
X121512980Y-80353154D01*
X121491340Y-80405399D01*
X121454956Y-80493238D01*
X121454109Y-80499666D01*
X121454108Y-80499673D01*
X121435165Y-80643566D01*
X121434318Y-80650000D01*
X102441945Y-80650000D01*
X102346410Y-80533590D01*
X102186450Y-80402315D01*
X102182166Y-80400025D01*
X102182163Y-80400023D01*
X102008248Y-80307063D01*
X102008246Y-80307062D01*
X102003954Y-80304768D01*
X101999293Y-80303354D01*
X101810590Y-80246112D01*
X101810586Y-80246111D01*
X101805934Y-80244700D01*
X101600000Y-80224417D01*
X101595157Y-80224894D01*
X101398908Y-80244223D01*
X101398907Y-80244223D01*
X101394066Y-80244700D01*
X101389415Y-80246110D01*
X101389409Y-80246112D01*
X101200706Y-80303354D01*
X101200702Y-80303355D01*
X101196046Y-80304768D01*
X101191757Y-80307060D01*
X101191751Y-80307063D01*
X101017836Y-80400023D01*
X101017828Y-80400028D01*
X101013550Y-80402315D01*
X101009796Y-80405394D01*
X101009791Y-80405399D01*
X100857354Y-80530500D01*
X100857348Y-80530505D01*
X100853590Y-80533590D01*
X100850505Y-80537348D01*
X100850500Y-80537354D01*
X100725399Y-80689791D01*
X100725394Y-80689796D01*
X100722315Y-80693550D01*
X100720028Y-80697828D01*
X100720023Y-80697836D01*
X100627063Y-80871751D01*
X100627060Y-80871757D01*
X100624768Y-80876046D01*
X100623355Y-80880702D01*
X100623354Y-80880706D01*
X100566112Y-81069409D01*
X100566110Y-81069415D01*
X100564700Y-81074066D01*
X100544417Y-81280000D01*
X99260500Y-81280000D01*
X99260500Y-78740000D01*
X100544417Y-78740000D01*
X100564700Y-78945934D01*
X100624768Y-79143954D01*
X100627062Y-79148246D01*
X100627063Y-79148248D01*
X100720023Y-79322163D01*
X100720025Y-79322166D01*
X100722315Y-79326450D01*
X100853590Y-79486410D01*
X101013550Y-79617685D01*
X101196046Y-79715232D01*
X101394066Y-79775300D01*
X101600000Y-79795583D01*
X101805934Y-79775300D01*
X102003954Y-79715232D01*
X102186450Y-79617685D01*
X102346410Y-79486410D01*
X102477685Y-79326450D01*
X102575232Y-79143954D01*
X102635300Y-78945934D01*
X102655583Y-78740000D01*
X102635300Y-78534066D01*
X102575232Y-78336046D01*
X102477685Y-78153550D01*
X102346410Y-77993590D01*
X102186450Y-77862315D01*
X102182166Y-77860025D01*
X102182163Y-77860023D01*
X102008248Y-77767063D01*
X102008246Y-77767062D01*
X102003954Y-77764768D01*
X101999293Y-77763354D01*
X101810590Y-77706112D01*
X101810586Y-77706111D01*
X101805934Y-77704700D01*
X101600000Y-77684417D01*
X101595157Y-77684894D01*
X101398908Y-77704223D01*
X101398907Y-77704223D01*
X101394066Y-77704700D01*
X101389415Y-77706110D01*
X101389409Y-77706112D01*
X101200706Y-77763354D01*
X101200702Y-77763355D01*
X101196046Y-77764768D01*
X101191757Y-77767060D01*
X101191751Y-77767063D01*
X101017836Y-77860023D01*
X101017828Y-77860028D01*
X101013550Y-77862315D01*
X101009796Y-77865394D01*
X101009791Y-77865399D01*
X100857354Y-77990500D01*
X100857348Y-77990505D01*
X100853590Y-77993590D01*
X100850505Y-77997348D01*
X100850500Y-77997354D01*
X100725399Y-78149791D01*
X100725394Y-78149796D01*
X100722315Y-78153550D01*
X100720028Y-78157828D01*
X100720023Y-78157836D01*
X100627063Y-78331751D01*
X100627060Y-78331757D01*
X100624768Y-78336046D01*
X100623355Y-78340702D01*
X100623354Y-78340706D01*
X100566112Y-78529409D01*
X100566110Y-78529415D01*
X100564700Y-78534066D01*
X100544417Y-78740000D01*
X99260500Y-78740000D01*
X99260500Y-76200000D01*
X100544417Y-76200000D01*
X100564700Y-76405934D01*
X100624768Y-76603954D01*
X100627062Y-76608246D01*
X100627063Y-76608248D01*
X100720023Y-76782163D01*
X100720025Y-76782166D01*
X100722315Y-76786450D01*
X100853590Y-76946410D01*
X101013550Y-77077685D01*
X101196046Y-77175232D01*
X101394066Y-77235300D01*
X101600000Y-77255583D01*
X101805934Y-77235300D01*
X102003954Y-77175232D01*
X102186450Y-77077685D01*
X102346410Y-76946410D01*
X102477685Y-76786450D01*
X102575232Y-76603954D01*
X102635300Y-76405934D01*
X102655583Y-76200000D01*
X102635300Y-75994066D01*
X102575232Y-75796046D01*
X102477685Y-75613550D01*
X102346410Y-75453590D01*
X102292761Y-75409562D01*
X102190208Y-75325399D01*
X102190207Y-75325398D01*
X102186450Y-75322315D01*
X102182166Y-75320025D01*
X102182163Y-75320023D01*
X102008248Y-75227063D01*
X102008246Y-75227062D01*
X102003954Y-75224768D01*
X101999293Y-75223354D01*
X101810590Y-75166112D01*
X101810586Y-75166111D01*
X101805934Y-75164700D01*
X101600000Y-75144417D01*
X101595157Y-75144894D01*
X101398908Y-75164223D01*
X101398907Y-75164223D01*
X101394066Y-75164700D01*
X101389415Y-75166110D01*
X101389409Y-75166112D01*
X101200706Y-75223354D01*
X101200702Y-75223355D01*
X101196046Y-75224768D01*
X101191757Y-75227060D01*
X101191751Y-75227063D01*
X101017836Y-75320023D01*
X101017828Y-75320028D01*
X101013550Y-75322315D01*
X101009796Y-75325394D01*
X101009791Y-75325399D01*
X100857354Y-75450500D01*
X100857348Y-75450505D01*
X100853590Y-75453590D01*
X100850505Y-75457348D01*
X100850500Y-75457354D01*
X100725399Y-75609791D01*
X100725394Y-75609796D01*
X100722315Y-75613550D01*
X100720028Y-75617828D01*
X100720023Y-75617836D01*
X100627063Y-75791751D01*
X100627060Y-75791757D01*
X100624768Y-75796046D01*
X100623355Y-75800702D01*
X100623354Y-75800706D01*
X100566112Y-75989409D01*
X100566110Y-75989415D01*
X100564700Y-75994066D01*
X100544417Y-76200000D01*
X99260500Y-76200000D01*
X99260500Y-73660000D01*
X100544417Y-73660000D01*
X100564700Y-73865934D01*
X100624768Y-74063954D01*
X100627062Y-74068246D01*
X100627063Y-74068248D01*
X100720023Y-74242163D01*
X100720025Y-74242166D01*
X100722315Y-74246450D01*
X100853590Y-74406410D01*
X101013550Y-74537685D01*
X101196046Y-74635232D01*
X101394066Y-74695300D01*
X101600000Y-74715583D01*
X101805934Y-74695300D01*
X102003954Y-74635232D01*
X102186450Y-74537685D01*
X102346410Y-74406410D01*
X102477685Y-74246450D01*
X102575232Y-74063954D01*
X102635300Y-73865934D01*
X102655583Y-73660000D01*
X102635300Y-73454066D01*
X102575232Y-73256046D01*
X102477685Y-73073550D01*
X102346410Y-72913590D01*
X102186450Y-72782315D01*
X102182166Y-72780025D01*
X102182163Y-72780023D01*
X102008248Y-72687063D01*
X102008246Y-72687062D01*
X102003954Y-72684768D01*
X101999293Y-72683354D01*
X101810590Y-72626112D01*
X101810586Y-72626111D01*
X101805934Y-72624700D01*
X101600000Y-72604417D01*
X101595157Y-72604894D01*
X101398908Y-72624223D01*
X101398907Y-72624223D01*
X101394066Y-72624700D01*
X101389415Y-72626110D01*
X101389409Y-72626112D01*
X101200706Y-72683354D01*
X101200702Y-72683355D01*
X101196046Y-72684768D01*
X101191757Y-72687060D01*
X101191751Y-72687063D01*
X101017836Y-72780023D01*
X101017828Y-72780028D01*
X101013550Y-72782315D01*
X101009796Y-72785394D01*
X101009791Y-72785399D01*
X100857354Y-72910500D01*
X100857348Y-72910505D01*
X100853590Y-72913590D01*
X100850505Y-72917348D01*
X100850500Y-72917354D01*
X100725399Y-73069791D01*
X100725394Y-73069796D01*
X100722315Y-73073550D01*
X100720028Y-73077828D01*
X100720023Y-73077836D01*
X100627063Y-73251751D01*
X100627060Y-73251757D01*
X100624768Y-73256046D01*
X100623355Y-73260702D01*
X100623354Y-73260706D01*
X100566112Y-73449409D01*
X100566110Y-73449415D01*
X100564700Y-73454066D01*
X100544417Y-73660000D01*
X99260500Y-73660000D01*
X99260500Y-71120000D01*
X100544417Y-71120000D01*
X100564700Y-71325934D01*
X100624768Y-71523954D01*
X100627062Y-71528246D01*
X100627063Y-71528248D01*
X100720023Y-71702163D01*
X100720025Y-71702166D01*
X100722315Y-71706450D01*
X100853590Y-71866410D01*
X101013550Y-71997685D01*
X101196046Y-72095232D01*
X101394066Y-72155300D01*
X101600000Y-72175583D01*
X101805934Y-72155300D01*
X102003954Y-72095232D01*
X102186450Y-71997685D01*
X102346410Y-71866410D01*
X102477685Y-71706450D01*
X102575232Y-71523954D01*
X102635300Y-71325934D01*
X102655583Y-71120000D01*
X102635300Y-70914066D01*
X102575232Y-70716046D01*
X102477685Y-70533550D01*
X102346410Y-70373590D01*
X102186450Y-70242315D01*
X102182166Y-70240025D01*
X102182163Y-70240023D01*
X102008248Y-70147063D01*
X102008246Y-70147062D01*
X102003954Y-70144768D01*
X101999293Y-70143354D01*
X101810590Y-70086112D01*
X101810586Y-70086111D01*
X101805934Y-70084700D01*
X101600000Y-70064417D01*
X101595157Y-70064894D01*
X101398908Y-70084223D01*
X101398907Y-70084223D01*
X101394066Y-70084700D01*
X101389415Y-70086110D01*
X101389409Y-70086112D01*
X101200706Y-70143354D01*
X101200702Y-70143355D01*
X101196046Y-70144768D01*
X101191757Y-70147060D01*
X101191751Y-70147063D01*
X101017836Y-70240023D01*
X101017828Y-70240028D01*
X101013550Y-70242315D01*
X101009796Y-70245394D01*
X101009791Y-70245399D01*
X100857354Y-70370500D01*
X100857348Y-70370505D01*
X100853590Y-70373590D01*
X100850505Y-70377348D01*
X100850500Y-70377354D01*
X100725399Y-70529791D01*
X100725394Y-70529796D01*
X100722315Y-70533550D01*
X100720028Y-70537828D01*
X100720023Y-70537836D01*
X100627063Y-70711751D01*
X100627060Y-70711757D01*
X100624768Y-70716046D01*
X100623355Y-70720702D01*
X100623354Y-70720706D01*
X100566112Y-70909409D01*
X100566110Y-70909415D01*
X100564700Y-70914066D01*
X100544417Y-71120000D01*
X99260500Y-71120000D01*
X99260500Y-68580000D01*
X100544417Y-68580000D01*
X100564700Y-68785934D01*
X100624768Y-68983954D01*
X100627062Y-68988246D01*
X100627063Y-68988248D01*
X100720023Y-69162163D01*
X100720025Y-69162166D01*
X100722315Y-69166450D01*
X100853590Y-69326410D01*
X101013550Y-69457685D01*
X101196046Y-69555232D01*
X101394066Y-69615300D01*
X101600000Y-69635583D01*
X101805934Y-69615300D01*
X102003954Y-69555232D01*
X102186450Y-69457685D01*
X102346410Y-69326410D01*
X102477685Y-69166450D01*
X102575232Y-68983954D01*
X102635300Y-68785934D01*
X102655583Y-68580000D01*
X102635300Y-68374066D01*
X102575232Y-68176046D01*
X102477685Y-67993550D01*
X102346410Y-67833590D01*
X102186450Y-67702315D01*
X102182166Y-67700025D01*
X102182163Y-67700023D01*
X102008248Y-67607063D01*
X102008246Y-67607062D01*
X102003954Y-67604768D01*
X101999293Y-67603354D01*
X101810590Y-67546112D01*
X101810586Y-67546111D01*
X101805934Y-67544700D01*
X101600000Y-67524417D01*
X101595157Y-67524894D01*
X101398908Y-67544223D01*
X101398907Y-67544223D01*
X101394066Y-67544700D01*
X101389415Y-67546110D01*
X101389409Y-67546112D01*
X101200706Y-67603354D01*
X101200702Y-67603355D01*
X101196046Y-67604768D01*
X101191757Y-67607060D01*
X101191751Y-67607063D01*
X101017836Y-67700023D01*
X101017828Y-67700028D01*
X101013550Y-67702315D01*
X101009796Y-67705394D01*
X101009791Y-67705399D01*
X100857354Y-67830500D01*
X100857348Y-67830505D01*
X100853590Y-67833590D01*
X100850505Y-67837348D01*
X100850500Y-67837354D01*
X100725399Y-67989791D01*
X100725394Y-67989796D01*
X100722315Y-67993550D01*
X100720028Y-67997828D01*
X100720023Y-67997836D01*
X100627063Y-68171751D01*
X100627060Y-68171757D01*
X100624768Y-68176046D01*
X100623355Y-68180702D01*
X100623354Y-68180706D01*
X100566112Y-68369409D01*
X100566110Y-68369415D01*
X100564700Y-68374066D01*
X100544417Y-68580000D01*
X99260500Y-68580000D01*
X99260500Y-66040000D01*
X100544417Y-66040000D01*
X100564700Y-66245934D01*
X100624768Y-66443954D01*
X100627062Y-66448246D01*
X100627063Y-66448248D01*
X100720023Y-66622163D01*
X100720025Y-66622166D01*
X100722315Y-66626450D01*
X100853590Y-66786410D01*
X101013550Y-66917685D01*
X101196046Y-67015232D01*
X101394066Y-67075300D01*
X101600000Y-67095583D01*
X101805934Y-67075300D01*
X102003954Y-67015232D01*
X102186450Y-66917685D01*
X102346410Y-66786410D01*
X102477685Y-66626450D01*
X102575232Y-66443954D01*
X102635300Y-66245934D01*
X102655583Y-66040000D01*
X102635300Y-65834066D01*
X102575232Y-65636046D01*
X102477685Y-65453550D01*
X102346410Y-65293590D01*
X102186450Y-65162315D01*
X102182166Y-65160025D01*
X102182163Y-65160023D01*
X102008248Y-65067063D01*
X102008246Y-65067062D01*
X102003954Y-65064768D01*
X101999293Y-65063354D01*
X101810590Y-65006112D01*
X101810586Y-65006111D01*
X101805934Y-65004700D01*
X101600000Y-64984417D01*
X101595157Y-64984894D01*
X101398908Y-65004223D01*
X101398907Y-65004223D01*
X101394066Y-65004700D01*
X101389415Y-65006110D01*
X101389409Y-65006112D01*
X101200706Y-65063354D01*
X101200702Y-65063355D01*
X101196046Y-65064768D01*
X101191757Y-65067060D01*
X101191751Y-65067063D01*
X101017836Y-65160023D01*
X101017828Y-65160028D01*
X101013550Y-65162315D01*
X101009796Y-65165394D01*
X101009791Y-65165399D01*
X100857354Y-65290500D01*
X100857348Y-65290505D01*
X100853590Y-65293590D01*
X100850505Y-65297348D01*
X100850500Y-65297354D01*
X100725399Y-65449791D01*
X100725394Y-65449796D01*
X100722315Y-65453550D01*
X100720028Y-65457828D01*
X100720023Y-65457836D01*
X100627063Y-65631751D01*
X100627060Y-65631757D01*
X100624768Y-65636046D01*
X100623355Y-65640702D01*
X100623354Y-65640706D01*
X100566112Y-65829409D01*
X100566110Y-65829415D01*
X100564700Y-65834066D01*
X100544417Y-66040000D01*
X99260500Y-66040000D01*
X99260500Y-63500000D01*
X100544417Y-63500000D01*
X100564700Y-63705934D01*
X100624768Y-63903954D01*
X100627062Y-63908246D01*
X100627063Y-63908248D01*
X100720023Y-64082163D01*
X100720025Y-64082166D01*
X100722315Y-64086450D01*
X100853590Y-64246410D01*
X101013550Y-64377685D01*
X101196046Y-64475232D01*
X101394066Y-64535300D01*
X101600000Y-64555583D01*
X101805934Y-64535300D01*
X102003954Y-64475232D01*
X102186450Y-64377685D01*
X102346410Y-64246410D01*
X102477685Y-64086450D01*
X102575232Y-63903954D01*
X102635300Y-63705934D01*
X102655583Y-63500000D01*
X102635300Y-63294066D01*
X102575232Y-63096046D01*
X102477685Y-62913550D01*
X102346410Y-62753590D01*
X102186450Y-62622315D01*
X102182166Y-62620025D01*
X102182163Y-62620023D01*
X102008248Y-62527063D01*
X102008246Y-62527062D01*
X102003954Y-62524768D01*
X101999293Y-62523354D01*
X101810590Y-62466112D01*
X101810586Y-62466111D01*
X101805934Y-62464700D01*
X101600000Y-62444417D01*
X101595157Y-62444894D01*
X101398908Y-62464223D01*
X101398907Y-62464223D01*
X101394066Y-62464700D01*
X101389415Y-62466110D01*
X101389409Y-62466112D01*
X101200706Y-62523354D01*
X101200702Y-62523355D01*
X101196046Y-62524768D01*
X101191757Y-62527060D01*
X101191751Y-62527063D01*
X101017836Y-62620023D01*
X101017828Y-62620028D01*
X101013550Y-62622315D01*
X101009796Y-62625394D01*
X101009791Y-62625399D01*
X100857354Y-62750500D01*
X100857348Y-62750505D01*
X100853590Y-62753590D01*
X100850505Y-62757348D01*
X100850500Y-62757354D01*
X100725399Y-62909791D01*
X100725394Y-62909796D01*
X100722315Y-62913550D01*
X100720028Y-62917828D01*
X100720023Y-62917836D01*
X100627063Y-63091751D01*
X100627060Y-63091757D01*
X100624768Y-63096046D01*
X100623355Y-63100702D01*
X100623354Y-63100706D01*
X100566112Y-63289409D01*
X100566110Y-63289415D01*
X100564700Y-63294066D01*
X100544417Y-63500000D01*
X99260500Y-63500000D01*
X99260500Y-60960000D01*
X100544417Y-60960000D01*
X100564700Y-61165934D01*
X100624768Y-61363954D01*
X100627062Y-61368246D01*
X100627063Y-61368248D01*
X100720023Y-61542163D01*
X100720025Y-61542166D01*
X100722315Y-61546450D01*
X100853590Y-61706410D01*
X101013550Y-61837685D01*
X101196046Y-61935232D01*
X101394066Y-61995300D01*
X101600000Y-62015583D01*
X101805934Y-61995300D01*
X102003954Y-61935232D01*
X102186450Y-61837685D01*
X102346410Y-61706410D01*
X102477685Y-61546450D01*
X102575232Y-61363954D01*
X102635300Y-61165934D01*
X102655583Y-60960000D01*
X102635300Y-60754066D01*
X102575232Y-60556046D01*
X102477685Y-60373550D01*
X102346410Y-60213590D01*
X102186450Y-60082315D01*
X102182166Y-60080025D01*
X102182163Y-60080023D01*
X102008248Y-59987063D01*
X102008246Y-59987062D01*
X102003954Y-59984768D01*
X101999293Y-59983354D01*
X101810590Y-59926112D01*
X101810586Y-59926111D01*
X101805934Y-59924700D01*
X101600000Y-59904417D01*
X101595157Y-59904894D01*
X101398908Y-59924223D01*
X101398907Y-59924223D01*
X101394066Y-59924700D01*
X101389415Y-59926110D01*
X101389409Y-59926112D01*
X101200706Y-59983354D01*
X101200702Y-59983355D01*
X101196046Y-59984768D01*
X101191757Y-59987060D01*
X101191751Y-59987063D01*
X101017836Y-60080023D01*
X101017828Y-60080028D01*
X101013550Y-60082315D01*
X101009796Y-60085394D01*
X101009791Y-60085399D01*
X100857354Y-60210500D01*
X100857348Y-60210505D01*
X100853590Y-60213590D01*
X100850505Y-60217348D01*
X100850500Y-60217354D01*
X100725399Y-60369791D01*
X100725394Y-60369796D01*
X100722315Y-60373550D01*
X100720028Y-60377828D01*
X100720023Y-60377836D01*
X100627063Y-60551751D01*
X100627060Y-60551757D01*
X100624768Y-60556046D01*
X100623355Y-60560702D01*
X100623354Y-60560706D01*
X100566112Y-60749409D01*
X100566110Y-60749415D01*
X100564700Y-60754066D01*
X100544417Y-60960000D01*
X99260500Y-60960000D01*
X99260500Y-58420000D01*
X100544417Y-58420000D01*
X100564700Y-58625934D01*
X100624768Y-58823954D01*
X100627062Y-58828246D01*
X100627063Y-58828248D01*
X100720023Y-59002163D01*
X100720025Y-59002166D01*
X100722315Y-59006450D01*
X100853590Y-59166410D01*
X101013550Y-59297685D01*
X101196046Y-59395232D01*
X101394066Y-59455300D01*
X101600000Y-59475583D01*
X101805934Y-59455300D01*
X102003954Y-59395232D01*
X102186450Y-59297685D01*
X102346410Y-59166410D01*
X102477685Y-59006450D01*
X102575232Y-58823954D01*
X102635300Y-58625934D01*
X102655583Y-58420000D01*
X102635300Y-58214066D01*
X102575232Y-58016046D01*
X102477685Y-57833550D01*
X102346410Y-57673590D01*
X102186450Y-57542315D01*
X102182166Y-57540025D01*
X102182163Y-57540023D01*
X102008248Y-57447063D01*
X102008246Y-57447062D01*
X102003954Y-57444768D01*
X101999293Y-57443354D01*
X101810590Y-57386112D01*
X101810586Y-57386111D01*
X101805934Y-57384700D01*
X101600000Y-57364417D01*
X101595157Y-57364894D01*
X101398908Y-57384223D01*
X101398907Y-57384223D01*
X101394066Y-57384700D01*
X101389415Y-57386110D01*
X101389409Y-57386112D01*
X101200706Y-57443354D01*
X101200702Y-57443355D01*
X101196046Y-57444768D01*
X101191757Y-57447060D01*
X101191751Y-57447063D01*
X101017836Y-57540023D01*
X101017828Y-57540028D01*
X101013550Y-57542315D01*
X101009796Y-57545394D01*
X101009791Y-57545399D01*
X100857354Y-57670500D01*
X100857348Y-57670505D01*
X100853590Y-57673590D01*
X100850505Y-57677348D01*
X100850500Y-57677354D01*
X100725399Y-57829791D01*
X100725394Y-57829796D01*
X100722315Y-57833550D01*
X100720028Y-57837828D01*
X100720023Y-57837836D01*
X100627063Y-58011751D01*
X100627060Y-58011757D01*
X100624768Y-58016046D01*
X100623355Y-58020702D01*
X100623354Y-58020706D01*
X100566112Y-58209409D01*
X100566110Y-58209415D01*
X100564700Y-58214066D01*
X100544417Y-58420000D01*
X99260500Y-58420000D01*
X99260500Y-55880000D01*
X100544417Y-55880000D01*
X100564700Y-56085934D01*
X100624768Y-56283954D01*
X100627062Y-56288246D01*
X100627063Y-56288248D01*
X100720023Y-56462163D01*
X100720025Y-56462166D01*
X100722315Y-56466450D01*
X100853590Y-56626410D01*
X101013550Y-56757685D01*
X101196046Y-56855232D01*
X101394066Y-56915300D01*
X101600000Y-56935583D01*
X101805934Y-56915300D01*
X102003954Y-56855232D01*
X102186450Y-56757685D01*
X102346410Y-56626410D01*
X102477685Y-56466450D01*
X102575232Y-56283954D01*
X102635300Y-56085934D01*
X102655583Y-55880000D01*
X102635300Y-55674066D01*
X102575232Y-55476046D01*
X102477685Y-55293550D01*
X102346410Y-55133590D01*
X102186450Y-55002315D01*
X102182166Y-55000025D01*
X102182163Y-55000023D01*
X102008248Y-54907063D01*
X102008246Y-54907062D01*
X102003954Y-54904768D01*
X101999293Y-54903354D01*
X101810590Y-54846112D01*
X101810586Y-54846111D01*
X101805934Y-54844700D01*
X101600000Y-54824417D01*
X101595157Y-54824894D01*
X101398908Y-54844223D01*
X101398907Y-54844223D01*
X101394066Y-54844700D01*
X101389415Y-54846110D01*
X101389409Y-54846112D01*
X101200706Y-54903354D01*
X101200702Y-54903355D01*
X101196046Y-54904768D01*
X101191757Y-54907060D01*
X101191751Y-54907063D01*
X101017836Y-55000023D01*
X101017828Y-55000028D01*
X101013550Y-55002315D01*
X101009796Y-55005394D01*
X101009791Y-55005399D01*
X100857354Y-55130500D01*
X100857348Y-55130505D01*
X100853590Y-55133590D01*
X100850505Y-55137348D01*
X100850500Y-55137354D01*
X100725399Y-55289791D01*
X100725394Y-55289796D01*
X100722315Y-55293550D01*
X100720028Y-55297828D01*
X100720023Y-55297836D01*
X100627063Y-55471751D01*
X100627060Y-55471757D01*
X100624768Y-55476046D01*
X100623355Y-55480702D01*
X100623354Y-55480706D01*
X100566112Y-55669409D01*
X100566110Y-55669415D01*
X100564700Y-55674066D01*
X100544417Y-55880000D01*
X99260500Y-55880000D01*
X99260500Y-53340000D01*
X100544417Y-53340000D01*
X100564700Y-53545934D01*
X100624768Y-53743954D01*
X100627062Y-53748246D01*
X100627063Y-53748248D01*
X100720023Y-53922163D01*
X100720025Y-53922166D01*
X100722315Y-53926450D01*
X100853590Y-54086410D01*
X101013550Y-54217685D01*
X101196046Y-54315232D01*
X101394066Y-54375300D01*
X101600000Y-54395583D01*
X101805934Y-54375300D01*
X102003954Y-54315232D01*
X102186450Y-54217685D01*
X102346410Y-54086410D01*
X102477685Y-53926450D01*
X102575232Y-53743954D01*
X102635300Y-53545934D01*
X102655583Y-53340000D01*
X102635300Y-53134066D01*
X102575232Y-52936046D01*
X102477685Y-52753550D01*
X102346410Y-52593590D01*
X102186450Y-52462315D01*
X102182166Y-52460025D01*
X102182163Y-52460023D01*
X102008248Y-52367063D01*
X102008246Y-52367062D01*
X102003954Y-52364768D01*
X101999293Y-52363354D01*
X101810590Y-52306112D01*
X101810586Y-52306111D01*
X101805934Y-52304700D01*
X101600000Y-52284417D01*
X101595157Y-52284894D01*
X101398908Y-52304223D01*
X101398907Y-52304223D01*
X101394066Y-52304700D01*
X101389415Y-52306110D01*
X101389409Y-52306112D01*
X101200706Y-52363354D01*
X101200702Y-52363355D01*
X101196046Y-52364768D01*
X101191757Y-52367060D01*
X101191751Y-52367063D01*
X101017836Y-52460023D01*
X101017828Y-52460028D01*
X101013550Y-52462315D01*
X101009796Y-52465394D01*
X101009791Y-52465399D01*
X100857354Y-52590500D01*
X100857348Y-52590505D01*
X100853590Y-52593590D01*
X100850505Y-52597348D01*
X100850500Y-52597354D01*
X100725399Y-52749791D01*
X100725394Y-52749796D01*
X100722315Y-52753550D01*
X100720028Y-52757828D01*
X100720023Y-52757836D01*
X100627063Y-52931751D01*
X100627060Y-52931757D01*
X100624768Y-52936046D01*
X100623355Y-52940702D01*
X100623354Y-52940706D01*
X100566112Y-53129409D01*
X100566110Y-53129415D01*
X100564700Y-53134066D01*
X100544417Y-53340000D01*
X99260500Y-53340000D01*
X99260500Y-50800000D01*
X100544417Y-50800000D01*
X100564700Y-51005934D01*
X100624768Y-51203954D01*
X100627062Y-51208246D01*
X100627063Y-51208248D01*
X100720023Y-51382163D01*
X100720025Y-51382166D01*
X100722315Y-51386450D01*
X100725398Y-51390207D01*
X100725399Y-51390208D01*
X100784066Y-51461695D01*
X100853590Y-51546410D01*
X101013550Y-51677685D01*
X101196046Y-51775232D01*
X101394066Y-51835300D01*
X101600000Y-51855583D01*
X101805934Y-51835300D01*
X102003954Y-51775232D01*
X102186450Y-51677685D01*
X102346410Y-51546410D01*
X102477685Y-51386450D01*
X102575232Y-51203954D01*
X102635300Y-51005934D01*
X102655583Y-50800000D01*
X102635300Y-50594066D01*
X102575232Y-50396046D01*
X102477685Y-50213550D01*
X102346410Y-50053590D01*
X102186450Y-49922315D01*
X102182166Y-49920025D01*
X102182163Y-49920023D01*
X102008248Y-49827063D01*
X102008246Y-49827062D01*
X102003954Y-49824768D01*
X101999293Y-49823354D01*
X101810590Y-49766112D01*
X101810586Y-49766111D01*
X101805934Y-49764700D01*
X101600000Y-49744417D01*
X101595157Y-49744894D01*
X101398908Y-49764223D01*
X101398907Y-49764223D01*
X101394066Y-49764700D01*
X101389415Y-49766110D01*
X101389409Y-49766112D01*
X101200706Y-49823354D01*
X101200702Y-49823355D01*
X101196046Y-49824768D01*
X101191757Y-49827060D01*
X101191751Y-49827063D01*
X101017836Y-49920023D01*
X101017828Y-49920028D01*
X101013550Y-49922315D01*
X101009796Y-49925394D01*
X101009791Y-49925399D01*
X100857354Y-50050500D01*
X100857348Y-50050505D01*
X100853590Y-50053590D01*
X100850505Y-50057348D01*
X100850500Y-50057354D01*
X100725399Y-50209791D01*
X100725394Y-50209796D01*
X100722315Y-50213550D01*
X100720028Y-50217828D01*
X100720023Y-50217836D01*
X100627063Y-50391751D01*
X100627060Y-50391757D01*
X100624768Y-50396046D01*
X100623355Y-50400702D01*
X100623354Y-50400706D01*
X100566112Y-50589409D01*
X100566110Y-50589415D01*
X100564700Y-50594066D01*
X100544417Y-50800000D01*
X99260500Y-50800000D01*
X99260500Y-48260000D01*
X100544417Y-48260000D01*
X100564700Y-48465934D01*
X100624768Y-48663954D01*
X100627062Y-48668246D01*
X100627063Y-48668248D01*
X100720023Y-48842163D01*
X100720025Y-48842166D01*
X100722315Y-48846450D01*
X100853590Y-49006410D01*
X101013550Y-49137685D01*
X101196046Y-49235232D01*
X101394066Y-49295300D01*
X101600000Y-49315583D01*
X101805934Y-49295300D01*
X102003954Y-49235232D01*
X102186450Y-49137685D01*
X102346410Y-49006410D01*
X102477685Y-48846450D01*
X102575232Y-48663954D01*
X102635300Y-48465934D01*
X102655583Y-48260000D01*
X102635300Y-48054066D01*
X102575232Y-47856046D01*
X102477685Y-47673550D01*
X102346410Y-47513590D01*
X102186450Y-47382315D01*
X102182166Y-47380025D01*
X102182163Y-47380023D01*
X102008248Y-47287063D01*
X102008246Y-47287062D01*
X102003954Y-47284768D01*
X101999293Y-47283354D01*
X101810590Y-47226112D01*
X101810586Y-47226111D01*
X101805934Y-47224700D01*
X101600000Y-47204417D01*
X101595157Y-47204894D01*
X101398908Y-47224223D01*
X101398907Y-47224223D01*
X101394066Y-47224700D01*
X101389415Y-47226110D01*
X101389409Y-47226112D01*
X101200706Y-47283354D01*
X101200702Y-47283355D01*
X101196046Y-47284768D01*
X101191757Y-47287060D01*
X101191751Y-47287063D01*
X101017836Y-47380023D01*
X101017828Y-47380028D01*
X101013550Y-47382315D01*
X101009796Y-47385394D01*
X101009791Y-47385399D01*
X100857354Y-47510500D01*
X100857348Y-47510505D01*
X100853590Y-47513590D01*
X100850505Y-47517348D01*
X100850500Y-47517354D01*
X100725399Y-47669791D01*
X100725394Y-47669796D01*
X100722315Y-47673550D01*
X100720028Y-47677828D01*
X100720023Y-47677836D01*
X100627063Y-47851751D01*
X100627060Y-47851757D01*
X100624768Y-47856046D01*
X100623355Y-47860702D01*
X100623354Y-47860706D01*
X100566112Y-48049409D01*
X100566110Y-48049415D01*
X100564700Y-48054066D01*
X100544417Y-48260000D01*
X99260500Y-48260000D01*
X99260500Y-45720000D01*
X100544417Y-45720000D01*
X100564700Y-45925934D01*
X100624768Y-46123954D01*
X100627062Y-46128246D01*
X100627063Y-46128248D01*
X100720023Y-46302163D01*
X100720025Y-46302166D01*
X100722315Y-46306450D01*
X100853590Y-46466410D01*
X101013550Y-46597685D01*
X101196046Y-46695232D01*
X101394066Y-46755300D01*
X101600000Y-46775583D01*
X101805934Y-46755300D01*
X102003954Y-46695232D01*
X102186450Y-46597685D01*
X102346410Y-46466410D01*
X102477685Y-46306450D01*
X102575232Y-46123954D01*
X102635300Y-45925934D01*
X102639455Y-45883749D01*
X105540247Y-45883749D01*
X105544316Y-45927666D01*
X105545988Y-45936612D01*
X105601809Y-46132803D01*
X105605105Y-46141309D01*
X105696018Y-46323889D01*
X105700823Y-46331649D01*
X105823736Y-46494411D01*
X105829883Y-46501154D01*
X105980619Y-46638569D01*
X105987889Y-46644059D01*
X106161315Y-46751439D01*
X106169472Y-46755501D01*
X106359669Y-46829184D01*
X106368442Y-46831679D01*
X106515661Y-46859199D01*
X106526775Y-46857997D01*
X106530000Y-46847294D01*
X106830000Y-46847294D01*
X106833224Y-46857997D01*
X106844338Y-46859199D01*
X106991557Y-46831679D01*
X107000330Y-46829184D01*
X107190527Y-46755501D01*
X107198684Y-46751439D01*
X107372110Y-46644059D01*
X107379380Y-46638569D01*
X107530116Y-46501154D01*
X107536263Y-46494411D01*
X107659176Y-46331649D01*
X107663981Y-46323889D01*
X107754894Y-46141309D01*
X107758190Y-46132803D01*
X107814011Y-45936612D01*
X107815683Y-45927666D01*
X107819752Y-45883749D01*
X136020247Y-45883749D01*
X136024316Y-45927666D01*
X136025988Y-45936612D01*
X136081809Y-46132803D01*
X136085105Y-46141309D01*
X136176018Y-46323889D01*
X136180823Y-46331649D01*
X136303736Y-46494411D01*
X136309883Y-46501154D01*
X136460619Y-46638569D01*
X136467889Y-46644059D01*
X136641315Y-46751439D01*
X136649472Y-46755501D01*
X136839669Y-46829184D01*
X136848442Y-46831679D01*
X136995661Y-46859199D01*
X137006775Y-46857997D01*
X137010000Y-46847294D01*
X137310000Y-46847294D01*
X137313224Y-46857997D01*
X137324338Y-46859199D01*
X137471557Y-46831679D01*
X137480330Y-46829184D01*
X137670527Y-46755501D01*
X137678684Y-46751439D01*
X137852110Y-46644059D01*
X137859380Y-46638569D01*
X138010116Y-46501154D01*
X138016263Y-46494411D01*
X138139176Y-46331649D01*
X138143981Y-46323889D01*
X138234894Y-46141309D01*
X138238190Y-46132803D01*
X138294011Y-45936612D01*
X138295683Y-45927666D01*
X138299752Y-45883749D01*
X138297742Y-45872994D01*
X138287217Y-45870000D01*
X137323033Y-45870000D01*
X137312754Y-45872754D01*
X137310000Y-45883033D01*
X137310000Y-46847294D01*
X137010000Y-46847294D01*
X137010000Y-45883033D01*
X137007245Y-45872754D01*
X136996967Y-45870000D01*
X136032783Y-45870000D01*
X136022257Y-45872994D01*
X136020247Y-45883749D01*
X107819752Y-45883749D01*
X107817742Y-45872994D01*
X107807217Y-45870000D01*
X106843033Y-45870000D01*
X106832754Y-45872754D01*
X106830000Y-45883033D01*
X106830000Y-46847294D01*
X106530000Y-46847294D01*
X106530000Y-45883033D01*
X106527245Y-45872754D01*
X106516967Y-45870000D01*
X105552783Y-45870000D01*
X105542257Y-45872994D01*
X105540247Y-45883749D01*
X102639455Y-45883749D01*
X102655583Y-45720000D01*
X102639455Y-45556250D01*
X105540247Y-45556250D01*
X105542257Y-45567005D01*
X105552783Y-45570000D01*
X106516967Y-45570000D01*
X106527245Y-45567245D01*
X106530000Y-45556967D01*
X106830000Y-45556967D01*
X106832754Y-45567245D01*
X106843033Y-45570000D01*
X107807217Y-45570000D01*
X107817742Y-45567005D01*
X107819752Y-45556250D01*
X136020247Y-45556250D01*
X136022257Y-45567005D01*
X136032783Y-45570000D01*
X136996967Y-45570000D01*
X137007245Y-45567245D01*
X137010000Y-45556967D01*
X137310000Y-45556967D01*
X137312754Y-45567245D01*
X137323033Y-45570000D01*
X138287217Y-45570000D01*
X138297742Y-45567005D01*
X138299752Y-45556250D01*
X138295683Y-45512333D01*
X138294011Y-45503387D01*
X138238190Y-45307196D01*
X138234894Y-45298690D01*
X138143981Y-45116110D01*
X138139176Y-45108350D01*
X138016263Y-44945588D01*
X138010116Y-44938845D01*
X137859380Y-44801430D01*
X137852110Y-44795940D01*
X137678684Y-44688560D01*
X137670527Y-44684498D01*
X137480330Y-44610815D01*
X137471557Y-44608320D01*
X137324338Y-44580800D01*
X137313224Y-44582002D01*
X137310000Y-44592706D01*
X137310000Y-45556967D01*
X137010000Y-45556967D01*
X137010000Y-44592706D01*
X137006775Y-44582002D01*
X136995661Y-44580800D01*
X136848442Y-44608320D01*
X136839669Y-44610815D01*
X136649472Y-44684498D01*
X136641315Y-44688560D01*
X136467889Y-44795940D01*
X136460619Y-44801430D01*
X136309883Y-44938845D01*
X136303736Y-44945588D01*
X136180823Y-45108350D01*
X136176018Y-45116110D01*
X136085105Y-45298690D01*
X136081809Y-45307196D01*
X136025988Y-45503387D01*
X136024316Y-45512333D01*
X136020247Y-45556250D01*
X107819752Y-45556250D01*
X107815683Y-45512333D01*
X107814011Y-45503387D01*
X107758190Y-45307196D01*
X107754894Y-45298690D01*
X107663981Y-45116110D01*
X107659176Y-45108350D01*
X107536263Y-44945588D01*
X107530116Y-44938845D01*
X107379380Y-44801430D01*
X107372110Y-44795940D01*
X107198684Y-44688560D01*
X107190527Y-44684498D01*
X107000330Y-44610815D01*
X106991557Y-44608320D01*
X106844338Y-44580800D01*
X106833224Y-44582002D01*
X106830000Y-44592706D01*
X106830000Y-45556967D01*
X106530000Y-45556967D01*
X106530000Y-44592706D01*
X106526775Y-44582002D01*
X106515661Y-44580800D01*
X106368442Y-44608320D01*
X106359669Y-44610815D01*
X106169472Y-44684498D01*
X106161315Y-44688560D01*
X105987889Y-44795940D01*
X105980619Y-44801430D01*
X105829883Y-44938845D01*
X105823736Y-44945588D01*
X105700823Y-45108350D01*
X105696018Y-45116110D01*
X105605105Y-45298690D01*
X105601809Y-45307196D01*
X105545988Y-45503387D01*
X105544316Y-45512333D01*
X105540247Y-45556250D01*
X102639455Y-45556250D01*
X102635300Y-45514066D01*
X102575232Y-45316046D01*
X102477685Y-45133550D01*
X102346410Y-44973590D01*
X102186450Y-44842315D01*
X102182166Y-44840025D01*
X102182163Y-44840023D01*
X102008248Y-44747063D01*
X102008246Y-44747062D01*
X102003954Y-44744768D01*
X101999293Y-44743354D01*
X101810590Y-44686112D01*
X101810586Y-44686111D01*
X101805934Y-44684700D01*
X101600000Y-44664417D01*
X101595157Y-44664894D01*
X101398908Y-44684223D01*
X101398907Y-44684223D01*
X101394066Y-44684700D01*
X101389415Y-44686110D01*
X101389409Y-44686112D01*
X101200706Y-44743354D01*
X101200702Y-44743355D01*
X101196046Y-44744768D01*
X101191757Y-44747060D01*
X101191751Y-44747063D01*
X101017836Y-44840023D01*
X101017828Y-44840028D01*
X101013550Y-44842315D01*
X101009796Y-44845394D01*
X101009791Y-44845399D01*
X100857354Y-44970500D01*
X100857348Y-44970505D01*
X100853590Y-44973590D01*
X100850505Y-44977348D01*
X100850500Y-44977354D01*
X100725399Y-45129791D01*
X100725394Y-45129796D01*
X100722315Y-45133550D01*
X100720028Y-45137828D01*
X100720023Y-45137836D01*
X100627063Y-45311751D01*
X100627060Y-45311757D01*
X100624768Y-45316046D01*
X100623355Y-45320702D01*
X100623354Y-45320706D01*
X100566112Y-45509409D01*
X100566110Y-45509415D01*
X100564700Y-45514066D01*
X100564223Y-45518907D01*
X100564223Y-45518908D01*
X100559486Y-45567005D01*
X100544417Y-45720000D01*
X99260500Y-45720000D01*
X99260500Y-44049748D01*
X100549500Y-44049748D01*
X100561133Y-44108231D01*
X100605448Y-44174552D01*
X100671769Y-44218867D01*
X100730252Y-44230500D01*
X102464890Y-44230500D01*
X102469748Y-44230500D01*
X102528231Y-44218867D01*
X102594552Y-44174552D01*
X102638867Y-44108231D01*
X102650500Y-44049748D01*
X105629500Y-44049748D01*
X105641133Y-44108231D01*
X105685448Y-44174552D01*
X105751769Y-44218867D01*
X105810252Y-44230500D01*
X107544890Y-44230500D01*
X107549748Y-44230500D01*
X107608231Y-44218867D01*
X107674552Y-44174552D01*
X107718867Y-44108231D01*
X107730500Y-44049748D01*
X107730500Y-43343749D01*
X136020247Y-43343749D01*
X136024316Y-43387666D01*
X136025988Y-43396612D01*
X136081809Y-43592803D01*
X136085105Y-43601309D01*
X136176018Y-43783889D01*
X136180823Y-43791649D01*
X136303736Y-43954411D01*
X136309883Y-43961154D01*
X136460619Y-44098569D01*
X136467889Y-44104059D01*
X136641315Y-44211439D01*
X136649472Y-44215501D01*
X136839669Y-44289184D01*
X136848442Y-44291679D01*
X136995661Y-44319199D01*
X137006775Y-44317997D01*
X137010000Y-44307294D01*
X137310000Y-44307294D01*
X137313224Y-44317997D01*
X137324338Y-44319199D01*
X137471557Y-44291679D01*
X137480330Y-44289184D01*
X137670527Y-44215501D01*
X137678684Y-44211439D01*
X137852110Y-44104059D01*
X137859380Y-44098569D01*
X138010116Y-43961154D01*
X138016263Y-43954411D01*
X138139176Y-43791649D01*
X138143981Y-43783889D01*
X138234894Y-43601309D01*
X138238190Y-43592803D01*
X138294011Y-43396612D01*
X138295683Y-43387666D01*
X138299752Y-43343749D01*
X138297742Y-43332994D01*
X138287217Y-43330000D01*
X137323033Y-43330000D01*
X137312754Y-43332754D01*
X137310000Y-43343033D01*
X137310000Y-44307294D01*
X137010000Y-44307294D01*
X137010000Y-43343033D01*
X137007245Y-43332754D01*
X136996967Y-43330000D01*
X136032783Y-43330000D01*
X136022257Y-43332994D01*
X136020247Y-43343749D01*
X107730500Y-43343749D01*
X107730500Y-43016250D01*
X136020247Y-43016250D01*
X136022257Y-43027005D01*
X136032783Y-43030000D01*
X136996967Y-43030000D01*
X137007245Y-43027245D01*
X137010000Y-43016967D01*
X137310000Y-43016967D01*
X137312754Y-43027245D01*
X137323033Y-43030000D01*
X138287217Y-43030000D01*
X138297742Y-43027005D01*
X138299752Y-43016250D01*
X138295683Y-42972333D01*
X138294011Y-42963387D01*
X138238190Y-42767196D01*
X138234894Y-42758690D01*
X138143981Y-42576110D01*
X138139176Y-42568350D01*
X138016263Y-42405588D01*
X138010116Y-42398845D01*
X137859380Y-42261430D01*
X137852110Y-42255940D01*
X137678684Y-42148560D01*
X137670527Y-42144498D01*
X137480330Y-42070815D01*
X137471557Y-42068320D01*
X137324338Y-42040800D01*
X137313224Y-42042002D01*
X137310000Y-42052706D01*
X137310000Y-43016967D01*
X137010000Y-43016967D01*
X137010000Y-42052706D01*
X137006775Y-42042002D01*
X136995661Y-42040800D01*
X136848442Y-42068320D01*
X136839669Y-42070815D01*
X136649472Y-42144498D01*
X136641315Y-42148560D01*
X136467889Y-42255940D01*
X136460619Y-42261430D01*
X136309883Y-42398845D01*
X136303736Y-42405588D01*
X136180823Y-42568350D01*
X136176018Y-42576110D01*
X136085105Y-42758690D01*
X136081809Y-42767196D01*
X136025988Y-42963387D01*
X136024316Y-42972333D01*
X136020247Y-43016250D01*
X107730500Y-43016250D01*
X107730500Y-42310252D01*
X107718867Y-42251769D01*
X107674552Y-42185448D01*
X107666441Y-42180028D01*
X107616340Y-42146551D01*
X107616338Y-42146550D01*
X107608231Y-42141133D01*
X107598667Y-42139230D01*
X107598666Y-42139230D01*
X107554511Y-42130447D01*
X107554506Y-42130446D01*
X107549748Y-42129500D01*
X105810252Y-42129500D01*
X105805494Y-42130446D01*
X105805488Y-42130447D01*
X105761333Y-42139230D01*
X105761330Y-42139231D01*
X105751769Y-42141133D01*
X105743663Y-42146549D01*
X105743659Y-42146551D01*
X105693558Y-42180028D01*
X105693555Y-42180030D01*
X105685448Y-42185448D01*
X105680030Y-42193555D01*
X105680028Y-42193558D01*
X105646551Y-42243659D01*
X105646549Y-42243663D01*
X105641133Y-42251769D01*
X105639231Y-42261330D01*
X105639230Y-42261333D01*
X105630447Y-42305488D01*
X105630446Y-42305494D01*
X105629500Y-42310252D01*
X105629500Y-44049748D01*
X102650500Y-44049748D01*
X102650500Y-42310252D01*
X102638867Y-42251769D01*
X102594552Y-42185448D01*
X102586441Y-42180028D01*
X102536340Y-42146551D01*
X102536338Y-42146550D01*
X102528231Y-42141133D01*
X102518667Y-42139230D01*
X102518666Y-42139230D01*
X102474511Y-42130447D01*
X102474506Y-42130446D01*
X102469748Y-42129500D01*
X100730252Y-42129500D01*
X100725494Y-42130446D01*
X100725488Y-42130447D01*
X100681333Y-42139230D01*
X100681330Y-42139231D01*
X100671769Y-42141133D01*
X100663663Y-42146549D01*
X100663659Y-42146551D01*
X100613558Y-42180028D01*
X100613555Y-42180030D01*
X100605448Y-42185448D01*
X100600030Y-42193555D01*
X100600028Y-42193558D01*
X100566551Y-42243659D01*
X100566549Y-42243663D01*
X100561133Y-42251769D01*
X100559231Y-42261330D01*
X100559230Y-42261333D01*
X100550447Y-42305488D01*
X100550446Y-42305494D01*
X100549500Y-42310252D01*
X100549500Y-44049748D01*
X99260500Y-44049748D01*
X99260500Y-41304567D01*
X99260532Y-41302065D01*
X99260696Y-41295550D01*
X99263147Y-41198646D01*
X99263397Y-41193689D01*
X99271065Y-41092845D01*
X99271563Y-41087930D01*
X99284186Y-40988591D01*
X99284927Y-40983742D01*
X99302382Y-40885997D01*
X99303375Y-40881148D01*
X99325514Y-40785226D01*
X99325521Y-40785192D01*
X99326748Y-40780423D01*
X99353476Y-40686299D01*
X99354917Y-40681663D01*
X99386106Y-40589488D01*
X99387779Y-40584920D01*
X99423301Y-40494829D01*
X99425163Y-40490425D01*
X99464911Y-40402502D01*
X99466968Y-40398232D01*
X99510795Y-40312660D01*
X99513068Y-40308475D01*
X99560854Y-40225367D01*
X99563326Y-40221299D01*
X99614936Y-40140796D01*
X99614952Y-40140771D01*
X99617601Y-40136852D01*
X99672925Y-40059052D01*
X99675725Y-40055308D01*
X99734661Y-39980311D01*
X99737646Y-39976693D01*
X99800051Y-39904651D01*
X99803185Y-39901203D01*
X99868940Y-39832234D01*
X99872252Y-39828922D01*
X99941184Y-39763203D01*
X99944654Y-39760050D01*
X100016672Y-39697666D01*
X100020301Y-39694669D01*
X100095306Y-39635727D01*
X100099072Y-39632913D01*
X100176866Y-39577591D01*
X100180779Y-39574948D01*
X100261333Y-39523305D01*
X100265360Y-39520859D01*
X100348485Y-39473064D01*
X100352644Y-39470805D01*
X100438194Y-39426989D01*
X100442532Y-39424900D01*
X100530405Y-39385173D01*
X100534854Y-39383291D01*
X100624957Y-39347765D01*
X100629493Y-39346105D01*
X100721656Y-39314921D01*
X100726290Y-39313479D01*
X100820486Y-39286732D01*
X100825182Y-39285524D01*
X100921180Y-39263369D01*
X100925971Y-39262389D01*
X101023701Y-39244936D01*
X101028616Y-39244185D01*
X101127941Y-39231564D01*
X101132836Y-39231067D01*
X101233681Y-39223400D01*
X101238646Y-39223149D01*
X101334894Y-39220715D01*
X101342062Y-39220534D01*
X101344564Y-39220502D01*
X137175437Y-39220502D01*
X137177939Y-39220534D01*
G37*
%TD.AperFunction*%
%TD*%
M02*
