<?xml version="1.0" encoding="UTF-8" standalone="no"?>
<svg
   width="8mm"
   height="5.658567mm"
   viewBox="0 0 28.346458 20.05004"
   id="svg4267"
   version="1.1"
   inkscape:version="1.1.1 (1:1.1+202109281949+c3084ef5ed)"
   sodipodi:docname="dog_rev_8mm.svg"
   xmlns:inkscape="http://www.inkscape.org/namespaces/inkscape"
   xmlns:sodipodi="http://sodipodi.sourceforge.net/DTD/sodipodi-0.dtd"
   xmlns="http://www.w3.org/2000/svg"
   xmlns:svg="http://www.w3.org/2000/svg"
   xmlns:rdf="http://www.w3.org/1999/02/22-rdf-syntax-ns#"
   xmlns:cc="http://creativecommons.org/ns#"
   xmlns:dc="http://purl.org/dc/elements/1.1/">
  <defs
     id="defs4269" />
  <sodipodi:namedview
     id="base"
     pagecolor="#ffffff"
     bordercolor="#666666"
     borderopacity="1.0"
     inkscape:pageopacity="0.0"
     inkscape:pageshadow="2"
     inkscape:zoom="7.9195959"
     inkscape:cx="2.5885159"
     inkscape:cy="31.377863"
     inkscape:document-units="mm"
     inkscape:current-layer="layer1"
     showgrid="false"
     inkscape:window-width="1528"
     inkscape:window-height="836"
     inkscape:window-x="72"
     inkscape:window-y="27"
     inkscape:window-maximized="1"
     inkscape:document-rotation="0"
     fit-margin-top="0"
     fit-margin-left="0"
     fit-margin-right="0"
     fit-margin-bottom="0"
     inkscape:pagecheckerboard="0" />
  <metadata
     id="metadata4272">
    <rdf:RDF>
      <cc:Work
         rdf:about="">
        <dc:format>image/svg+xml</dc:format>
        <dc:type
           rdf:resource="http://purl.org/dc/dcmitype/StillImage" />
      </cc:Work>
    </rdf:RDF>
  </metadata>
  <g
     inkscape:label="Layer 1"
     inkscape:groupmode="layer"
     id="layer1"
     transform="translate(-115.73103,-958.781)">
    <g
       id="g4875"
       transform="matrix(-0.28467181,0,0,0.27766676,176.62265,706.17767)"
       style="stroke:none;stroke-width:3.55685">
      <path
         sodipodi:nodetypes="ccccccssscsscsscscscsssscscccccsccsccccscscssscccccccc"
         inkscape:connector-curvature="0"
         id="path4614"
         d="m 135.9373,973.36346 -5.3503,-8.56669 1.11738,-1.07213 1.11747,-1.07285 -2.4813,-8.05979 -2.48127,-8.06066 1.73862,-3.54013 c 0.95628,-1.94681 1.74149,-3.63499 1.74503,-3.75146 0.004,-0.11347 -3.88569,-4.05483 -8.6426,-8.75197 -4.75688,-4.69778 -8.52366,-8.57877 -8.37063,-8.6246 0.15285,-0.0707 4.95464,3.01476 10.67022,6.80132 5.71565,3.78743 10.65584,6.89358 10.97831,6.90279 0.56679,0 38.90588,-4.45755 40.02499,-4.67144 0.30447,-0.0705 4.97185,-3.99382 10.37246,-8.74598 7.95185,-6.99635 10.4177,-9.00762 12.96639,-10.5729 1.73054,-1.06279 3.26074,-1.8905 3.39959,-1.83912 0.13724,0.0707 -0.47741,1.16942 -1.37067,2.48313 l -1.62482,2.3885 7.08583,7.33956 c 3.89691,4.036 7.07828,7.42948 7.0691,7.53953 0,0.11347 -1.01582,0.74272 -2.2369,1.40385 -1.68703,0.91399 -2.59786,1.64236 -3.79159,3.03316 -0.86428,1.00649 -1.63704,1.8284 -1.71759,1.82541 -0.08,0 -1.70874,-1.16492 -3.6179,-2.5844 -1.90907,-1.41862 -3.59725,-2.54222 -3.75139,-2.49576 -0.15287,0.0707 -1.65728,1.76183 -3.34052,3.81162 l -3.06056,3.72727 0.99504,3.08539 0.9948,3.0856 -1.88834,2.27481 -1.88864,2.27589 1.24138,13.77904 c 0.68255,7.57827 1.29722,14.18018 1.3654,14.67048 l 0.1244,0.8927 1.72883,0.0716 c 2.05981,0.0716 2.40101,0.37165 2.23193,2.02767 l -0.12225,1.17787 -3.53406,-0.10721 -3.5342,-0.10722 -3.73203,-12.93438 c -2.05266,-7.11366 -3.86911,-12.98449 -4.03657,-13.04595 -0.30304,-0.11347 -32.31404,1.00007 -35.02597,1.21588 -1.40126,0.11348 -1.42435,0.12846 -1.53563,1.09214 -0.10722,0.92768 -0.33807,1.127 -4.39407,3.79726 -2.3545,1.5503 -4.3322,2.86674 -4.39486,2.92534 -0.0644,0.0716 1.24015,3.33348 2.89517,7.27661 l 3.0091,7.16871 1.35416,0.10721 c 2.53639,0.20726 2.61929,0.26447 2.48214,1.72034 l -0.12161,1.28509 -2.65653,-7.2e-4 -2.65652,-10e-4 -5.35031,-8.56666 z"
         style="fill:#000000;fill-opacity:1;stroke:none;stroke-width:3.55405;stroke-miterlimit:4;stroke-dasharray:none;stroke-opacity:1" />
    </g>
  </g>
</svg>
