<?xml version="1.0" encoding="UTF-8" standalone="no"?>
<!-- Created with Inkscape (http://www.inkscape.org/) -->

<svg
   width="170.74445mm"
   height="170.74445mm"
   viewBox="0 0 170.74445 170.74445"
   version="1.1"
   id="svg531"
   inkscape:version="1.1.1 (1:1.1+202109281949+c3084ef5ed)"
   sodipodi:docname="HS_LOGO_reversed.svg"
   xmlns:inkscape="http://www.inkscape.org/namespaces/inkscape"
   xmlns:sodipodi="http://sodipodi.sourceforge.net/DTD/sodipodi-0.dtd"
   xmlns="http://www.w3.org/2000/svg"
   xmlns:svg="http://www.w3.org/2000/svg">
  <sodipodi:namedview
     id="namedview533"
     pagecolor="#ffffff"
     bordercolor="#666666"
     borderopacity="1.0"
     inkscape:pageshadow="2"
     inkscape:pageopacity="0.0"
     inkscape:pagecheckerboard="0"
     inkscape:document-units="mm"
     showgrid="false"
     fit-margin-top="0"
     fit-margin-left="0"
     fit-margin-right="0"
     fit-margin-bottom="0"
     inkscape:zoom="0.59152637"
     inkscape:cx="315.28603"
     inkscape:cy="425.17124"
     inkscape:window-width="1528"
     inkscape:window-height="836"
     inkscape:window-x="72"
     inkscape:window-y="27"
     inkscape:window-maximized="1"
     inkscape:current-layer="layer1" />
  <defs
     id="defs528" />
  <g
     inkscape:label="Layer 1"
     inkscape:groupmode="layer"
     id="layer1"
     transform="translate(-21.514405,-36.389073)">
    <path
       style="fill:#000000;stroke-width:1"
       d="M 192.25885,121.7613 V 36.389073 H 106.88663 21.514405 v 85.372227 85.37222 h 85.372225 85.37222 z m -93.486115,73.57119 c -20.99983,-2.53708 -39.4693,-13.377 -51.63124,-30.30291 -18.64475,-25.94813 -18.64475,-60.94121 0,-86.88934 13.91057,-19.359497 36.29059,-30.793048 60.274305,-30.793048 23.9837,0 46.36372,11.433551 60.27429,30.793048 18.64476,25.94813 18.64476,60.94121 0,86.88934 -15.65617,21.78888 -42.32589,33.51553 -68.917355,30.30291 z m 15.345835,-5.51437 c 15.85268,-1.61897 30.29734,-8.50887 41.65945,-19.87098 26.9263,-26.92631 26.9263,-69.79815 0,-96.724457 -26.92631,-26.926303 -69.798145,-26.926303 -96.724455,0 -26.9263,26.926307 -26.9263,69.798147 0,96.724457 14.64066,14.64065 34.85427,21.93502 55.065005,19.87098 z M 67.551905,150.89965 c -9.29654,-2.50508 -14.42183,-8.84998 -13.8377,-17.13054 0.28773,-4.07878 1.34889,-6.46191 4.10829,-9.22633 2.98659,-2.99201 4.97267,-3.97736 14.45122,-7.16964 8.66326,-2.9177 10.72302,-3.8606 13.00353,-5.95266 2.0841,-1.91188 3.00036,-3.97593 3.00036,-6.75889 0,-4.992038 -3.47923,-7.983047 -10.56807,-9.085125 -4.79324,-0.745186 -12.3487,0.765362 -17.31352,3.461463 -1.21936,0.66216 -2.28892,1.203922 -2.37682,1.203922 -0.21897,0 -2.63812,-4.835117 -2.63812,-5.272776 0,-0.561111 5.53616,-3.074656 8.91679,-4.048432 6.20132,-1.786262 12.50396,-1.968052 18.18146,-0.524412 5.28747,1.344461 9.54969,4.521377 11.55259,8.610901 0.96458,1.969499 1.03666,2.399289 1.03666,6.181549 0,3.86899 -0.055,4.17653 -1.14075,6.38156 -1.42986,2.90379 -4.09605,5.47708 -7.39736,7.13959 -1.36119,0.68549 -5.87072,2.38518 -10.02117,3.77709 -8.60476,2.88572 -10.84574,3.91349 -12.91799,5.92455 -2.07831,2.01693 -2.66147,3.33529 -2.83212,6.40261 -0.17545,3.15359 0.33727,4.61895 2.39857,6.8552 2.50696,2.71973 6.64241,4.08091 12.39835,4.08091 6.62411,0 13.13024,-2.47682 18.69813,-7.1182 l 1.6551,-1.37969 1.4155,2.56338 c 1.62625,2.94502 1.65712,2.8411 -1.55071,5.22008 -3.91408,2.90275 -9.90434,5.54964 -14.34048,6.33654 -2.79988,0.49666 -11.36707,0.20496 -13.88174,-0.47265 z m 77.434725,-11.85224 v -12.34722 h -15.16945 -15.16944 v 12.34722 12.34722 h -5.99722 -5.99722 V 120.70296 90.011297 h 5.99722 5.99722 v 13.052783 13.05277 h 15.16944 15.16945 V 103.06408 90.011297 h 5.99722 5.99722 v 30.691663 30.69167 h -5.99722 -5.99722 z"
       id="path611" />
  </g>
</svg>
