%TF.GenerationSoftware,KiCad,Pcbnew,7.0.0-da2b9df05c~163~ubuntu20.04.1*%
%TF.CreationDate,2023-06-08T13:28:59+01:00*%
%TF.ProjectId,h_bridge,685f6272-6964-4676-952e-6b696361645f,rev?*%
%TF.SameCoordinates,Original*%
%TF.FileFunction,Profile,NP*%
%FSLAX46Y46*%
G04 Gerber Fmt 4.6, Leading zero omitted, Abs format (unit mm)*
G04 Created by KiCad (PCBNEW 7.0.0-da2b9df05c~163~ubuntu20.04.1) date 2023-06-08 13:28:59*
%MOMM*%
%LPD*%
G01*
G04 APERTURE LIST*
%TA.AperFunction,Profile*%
%ADD10C,0.019999*%
%TD*%
G04 APERTURE END LIST*
D10*
X93425023Y-43426424D02*
X93475655Y-43409292D01*
X106872634Y-43394608D02*
X106924345Y-43409292D01*
X106600301Y-43360301D02*
X106656377Y-43361719D01*
X92896103Y-43840738D02*
X92926484Y-43798015D01*
X107623877Y-44075324D02*
X107641009Y-44125956D01*
X107677444Y-44284049D02*
X107684374Y-44338584D01*
X93280283Y-43491822D02*
X93327269Y-43467757D01*
X107532241Y-60815647D02*
X107503897Y-60859860D01*
X92715626Y-60362014D02*
X92711418Y-60306674D01*
X107209563Y-43546404D02*
X107252286Y-43576785D01*
X92776123Y-44075324D02*
X92795634Y-44025839D01*
X92867759Y-43884951D02*
X92896103Y-43840738D01*
X92993084Y-43717310D02*
X93029165Y-43679466D01*
X107473516Y-43798015D02*
X107503897Y-43840738D01*
X93029165Y-43679466D02*
X93067009Y-43643385D01*
X107406916Y-43717310D02*
X107441166Y-43756850D01*
X92776123Y-60625274D02*
X92758991Y-60574642D01*
X106656377Y-61338879D02*
X106600301Y-61340297D01*
X107503897Y-43840738D02*
X107532241Y-43884951D01*
X92758991Y-44125956D02*
X92776123Y-44075324D01*
X92732139Y-44230387D02*
X92744307Y-44177666D01*
X107209563Y-61154194D02*
X107165350Y-61182538D01*
X107441166Y-60943749D02*
X107406916Y-60983288D01*
X106924345Y-43409292D02*
X106974977Y-43426424D01*
X93106549Y-43609135D02*
X93147714Y-43576785D01*
X92795634Y-44025839D02*
X92817456Y-43977570D01*
X92710000Y-60250598D02*
X92710000Y-44450000D01*
X92722556Y-60416549D02*
X92715626Y-60362014D01*
X92841521Y-43930584D02*
X92867759Y-43884951D01*
X93067009Y-61057214D02*
X93029165Y-61021132D01*
X93743623Y-43361719D02*
X93799699Y-43360301D01*
X107370835Y-61021132D02*
X107332990Y-61057214D01*
X107558479Y-43930584D02*
X107582544Y-43977570D01*
X107024462Y-61254663D02*
X106974977Y-61274175D01*
X106600301Y-61340297D02*
X93799699Y-61340297D01*
X107370835Y-43679466D02*
X107406916Y-43717310D01*
X92795634Y-60674759D02*
X92776123Y-60625274D01*
X107641009Y-44125956D02*
X107655693Y-44177666D01*
X107604366Y-60674759D02*
X107582544Y-60723029D01*
X93067009Y-43643385D02*
X93106549Y-43609135D01*
X107690000Y-44450000D02*
X107690000Y-60250598D01*
X93527366Y-61305991D02*
X93475655Y-61291307D01*
X93190437Y-43546404D02*
X93234650Y-43518060D01*
X93527366Y-43394608D02*
X93580086Y-43382440D01*
X107293451Y-61091463D02*
X107252286Y-61123813D01*
X107406916Y-60983288D02*
X107370835Y-61021132D01*
X93147714Y-61123813D02*
X93106549Y-61091463D01*
X93029165Y-61021132D02*
X92993084Y-60983288D01*
X92958834Y-60943749D02*
X92926484Y-60902583D01*
X106766252Y-61327741D02*
X106711717Y-61334671D01*
X107072731Y-43467757D02*
X107119717Y-43491822D01*
X93280283Y-61208777D02*
X93234650Y-61182538D01*
X93425023Y-61274175D02*
X93375538Y-61254663D01*
X107532241Y-43884951D02*
X107558479Y-43930584D01*
X107332990Y-43643385D02*
X107370835Y-43679466D01*
X107252286Y-43576785D02*
X107293451Y-43609135D01*
X107667861Y-60470211D02*
X107655693Y-60522932D01*
X107688582Y-44393924D02*
X107690000Y-44450000D01*
X93234650Y-61182538D02*
X93190437Y-61154194D01*
X107655693Y-44177666D02*
X107667861Y-44230387D01*
X106872634Y-61305991D02*
X106819914Y-61318158D01*
X92722556Y-44284049D02*
X92732139Y-44230387D01*
X93633748Y-43372857D02*
X93688283Y-43365927D01*
X92867759Y-60815647D02*
X92841521Y-60770014D01*
X93580086Y-43382440D02*
X93633748Y-43372857D01*
X93688283Y-61334671D02*
X93633748Y-61327741D01*
X93799699Y-61340297D02*
X93743623Y-61338879D01*
X107582544Y-60723029D02*
X107558479Y-60770014D01*
X107332990Y-61057214D02*
X107293451Y-61091463D01*
X93475655Y-43409292D02*
X93527366Y-43394608D01*
X92758991Y-60574642D02*
X92744307Y-60522932D01*
X92711418Y-60306674D02*
X92710000Y-60250598D01*
X107655693Y-60522932D02*
X107641009Y-60574642D01*
X107119717Y-61208777D02*
X107072731Y-61232841D01*
X107684374Y-60362014D02*
X107677444Y-60416549D01*
X93688283Y-43365927D02*
X93743623Y-43361719D01*
X92926484Y-60902583D02*
X92896103Y-60859860D01*
X92817456Y-60723029D02*
X92795634Y-60674759D01*
X107558479Y-60770014D02*
X107532241Y-60815647D01*
X92744307Y-60522932D02*
X92732139Y-60470211D01*
X92732139Y-60470211D02*
X92722556Y-60416549D01*
X107623877Y-60625274D02*
X107604366Y-60674759D01*
X92841521Y-60770014D02*
X92817456Y-60723029D01*
X107473516Y-60902583D02*
X107441166Y-60943749D01*
X107165350Y-43518060D02*
X107209563Y-43546404D01*
X92710000Y-44450000D02*
X92711418Y-44393924D01*
X107684374Y-44338584D02*
X107688582Y-44393924D01*
X107641009Y-60574642D02*
X107623877Y-60625274D01*
X93234650Y-43518060D02*
X93280283Y-43491822D01*
X107252286Y-61123813D02*
X107209563Y-61154194D01*
X92817456Y-43977570D02*
X92841521Y-43930584D01*
X106656377Y-43361719D02*
X106711717Y-43365927D01*
X106819914Y-43382440D02*
X106872634Y-43394608D01*
X107688582Y-60306674D02*
X107684374Y-60362014D01*
X107293451Y-43609135D02*
X107332990Y-43643385D01*
X107667861Y-44230387D02*
X107677444Y-44284049D01*
X93375538Y-61254663D02*
X93327269Y-61232841D01*
X107165350Y-61182538D02*
X107119717Y-61208777D01*
X107441166Y-43756850D02*
X107473516Y-43798015D01*
X107072731Y-61232841D02*
X107024462Y-61254663D01*
X93743623Y-61338879D02*
X93688283Y-61334671D01*
X93375538Y-43445935D02*
X93425023Y-43426424D01*
X106924345Y-61291307D02*
X106872634Y-61305991D01*
X92896103Y-60859860D02*
X92867759Y-60815647D01*
X93106549Y-61091463D02*
X93067009Y-61057214D01*
X92926484Y-43798015D02*
X92958834Y-43756850D01*
X107119717Y-43491822D02*
X107165350Y-43518060D01*
X92958834Y-43756850D02*
X92993084Y-43717310D01*
X93327269Y-61232841D02*
X93280283Y-61208777D01*
X93633748Y-61327741D02*
X93580086Y-61318158D01*
X92715626Y-44338584D02*
X92722556Y-44284049D01*
X93190437Y-61154194D02*
X93147714Y-61123813D01*
X106819914Y-61318158D02*
X106766252Y-61327741D01*
X107677444Y-60416549D02*
X107667861Y-60470211D01*
X106974977Y-61274175D02*
X106924345Y-61291307D01*
X106974977Y-43426424D02*
X107024462Y-43445935D01*
X106711717Y-43365927D02*
X106766252Y-43372857D01*
X107503897Y-60859860D02*
X107473516Y-60902583D01*
X93799699Y-43360301D02*
X106600301Y-43360301D01*
X92744307Y-44177666D02*
X92758991Y-44125956D01*
X106766252Y-43372857D02*
X106819914Y-43382440D01*
X107582544Y-43977570D02*
X107604366Y-44025839D01*
X92993084Y-60983288D02*
X92958834Y-60943749D01*
X93327269Y-43467757D02*
X93375538Y-43445935D01*
X106711717Y-61334671D02*
X106656377Y-61338879D01*
X107690000Y-60250598D02*
X107688582Y-60306674D01*
X93475655Y-61291307D02*
X93425023Y-61274175D01*
X93580086Y-61318158D02*
X93527366Y-61305991D01*
X92711418Y-44393924D02*
X92715626Y-44338584D01*
X107604366Y-44025839D02*
X107623877Y-44075324D01*
X93147714Y-43576785D02*
X93190437Y-43546404D01*
X107024462Y-43445935D02*
X107072731Y-43467757D01*
M02*
